<?xml version="1.0" encoding="UTF-8"?>
<!DOCTYPE svg PUBLIC "-//W3C//DTD SVG 1.1//EN" "http://www.w3.org/Graphics/SVG/1.1/DTD/svg11.dtd">
<!-- Creator: CorelDRAW 2020 (64 Bit) -->
<svg xmlns="http://www.w3.org/2000/svg" xml:space="preserve" width="210mm" height="297mm" version="1.1" style="shape-rendering:geometricPrecision; text-rendering:geometricPrecision; image-rendering:optimizeQuality; fill-rule:evenodd; clip-rule:evenodd"
viewBox="0 0 21000 29700"
 xmlns:xlink="http://www.w3.org/1999/xlink"
 xmlns:xodm="http://www.corel.com/coreldraw/odm/2003">
 <defs>
  <style type="text/css">
   <![CDATA[
    .fil3 {fill:#FEFEFE;fill-rule:nonzero}
    .fil7 {fill:#373435;fill-rule:nonzero}
    .fil13 {fill:#CECFCF;fill-rule:nonzero}
    .fil1 {fill:#C8C5E2;fill-rule:nonzero}
    .fil10 {fill:#BEE2CE;fill-rule:nonzero}
    .fil12 {fill:#97C4AD;fill-rule:nonzero}
    .fil9 {fill:#949CA0;fill-rule:nonzero}
    .fil0 {fill:#78C79F;fill-rule:nonzero}
    .fil11 {fill:#4EB789;fill-rule:nonzero}
    .fil4 {fill:#566267;fill-rule:nonzero}
    .fil8 {fill:#333332;fill-rule:nonzero}
    .fil2 {fill:#313F44;fill-rule:nonzero}
    .fil6 {fill:#2E373B;fill-rule:nonzero}
    .fil5 {fill:#3E4095;fill-rule:nonzero}
   ]]>
  </style>
 </defs>
 <g id="Camada_x0020_1">
  <metadata id="CorelCorpID_0Corel-Layer"/>
  <g id="_2486059799104">
   <path class="fil0" d="M16552.87 6480.86c-1719.61,-2944.74 -6383.55,-1895.94 -7336.19,-3328.39 -487.81,-733.42 -1033.48,-1583.62 -1825.01,-2025.72 -754.56,-421.46 -1629.45,-571.85 -2392.22,-516.01 -2298.14,168.24 -3479.41,1929.43 -3478.04,4083.21 0.25,398.85 41.06,811.16 122.84,1229.31 698.24,3569.82 3862.77,7216.38 7622.25,7241.91 1966.24,13.34 3843.44,-689.5 5315.97,-1683.13 11.04,-7.41 22.01,-14.85 32.98,-22.33 1471.05,-1001.36 3250.29,-2730.54 1937.42,-4978.85z"/>
   <path class="fil1" d="M9321.56 13165.35c-18.23,0 -36.83,-0.07 -55.06,-0.18 -1100.03,-7.48 -2149.15,-324.98 -3100.42,-859.85 15.67,-14.02 30.76,-28.65 45.26,-43.85 7.41,-7.77 7.13,-20.12 -0.67,-27.52 -3.77,-3.6 -8.6,-5.36 -13.4,-5.36 -5.15,0 -10.27,2.01 -14.11,6.02 -16.8,17.64 -34.47,34.48 -52.92,50.42 -266.59,-151.8 -525.11,-320.5 -775.12,-504.4l1033.46 0c-1.55,17.64 -3.7,35.14 -6.42,52.39 -1.69,10.62 5.54,20.56 16.16,22.26 1.05,0.17 2.08,0.24 3.07,0.24 9.41,0 17.67,-6.84 19.19,-16.44 3.07,-19.26 5.39,-38.73 7.05,-58.45l1183.22 0 0 -19.44 0 19.44c266.17,0 481.93,-215.72 481.93,-481.93l0 -329.6 1004.82 0c-18.17,109.32 -33.06,202.07 -43.75,266.21 -57.61,345.93 -159.91,657.29 -107.77,776.35 51.75,118.71 796.17,691.94 1224.27,839.79 194.62,67.41 614.82,95.18 1015.15,105.4 -604.7,134.24 -1229.39,208.54 -1863.94,208.5zm-2959.83 -1198.56c-7.86,0 -15.27,4.83 -18.24,12.63 -17.92,47.69 -40.53,93.1 -67.27,135.68 -5.72,9.1 -3,21.09 6.1,26.81 3.25,2.04 6.81,3 10.34,3 6.49,0 12.8,-3.21 16.51,-9.1 28.12,-44.77 51.93,-92.5 70.77,-142.7 3.77,-10.06 -1.31,-21.28 -11.36,-25.05 -2.26,-0.85 -4.59,-1.27 -6.85,-1.27zm7184.77 128.8c106.47,-114.12 205.53,-241.58 291.18,-383.58l0 0c0,0 -99.59,-326.6 -267.12,-742.91l1281.75 0c443.05,-0.04 802.39,-359.38 802.39,-802.46l0 -4722.45c346.53,276.57 652.46,615.91 898.17,1036.67 322.12,551.64 458.09,1072.05 458.16,1558.11 0.17,1494.92 -1285.46,2665.09 -2395.58,3420.74 -10.97,7.48 -21.94,14.92 -32.98,22.33 -326.6,220.38 -673,426.4 -1035.97,613.55zm-993.77 -70.03c-2.72,0 -3.92,-3.56 -3.92,-10.05 0.04,-47.17 62.94,-249.52 63.01,-374.79 0,-36.13 -5.19,-65.83 -18.67,-83.58 -56.83,-75.35 -208.17,-81.59 -256.75,-81.59 -9.63,0 -15.24,0.24 -15.24,0.24l17.54 -108.55c1.37,-7.16 43.46,-222.99 77.61,-398.14l236.46 0c126.62,228.99 292.6,543.28 336.98,693.1 0,0 -435.47,348.69 -435.26,362.3 0,0.29 0.18,0.39 0.53,0.39 -0.85,0.46 -1.62,0.67 -2.29,0.67zm-2720.98 -253.61l-133.88 -117.9 278.59 -684.95 89.11 0 111.37 493.08c0,0 -33.69,-2.51 -79.65,-2.51 -74.19,0 -180.41,6.53 -228.96,40.64 -37.99,26.92 -47.8,91.27 -47.8,150.6 0,63.4 11.22,121.04 11.22,121.04zm-6954.03 -2731.91c-245.75,-403.19 -462.9,-822.14 -647.74,-1249.39 2.98,1.84 6.49,2.89 10.26,2.89 10.75,0 19.45,-8.71 19.45,-19.43l0 -155.65c0,-10.76 -8.7,-19.47 -19.45,-19.47 -10.75,0 -19.46,8.71 -19.46,19.47l0 150.85c-259.9,-604.77 -455.36,-1226.61 -576.53,-1846.05 -82.04,-419.49 -122.84,-833.05 -122.84,-1233.07 0,-2152.08 1181.24,-3911.31 3478.04,-4079.45 99.63,-7.29 201.03,-11.06 303.99,-11.18l4.9 0c683.79,0 1428.89,161.64 2083.33,527.19 741.32,414.09 1267.07,1186.14 1731.5,1884.96l-5443.02 0c-423.94,0.04 -771.26,329.32 -800.05,746.13 -1.59,18.73 -2.38,37.53 -2.38,56.69l0 2872.81c-48.5,8.4 -95.49,21.17 -140.54,37.96 -10.07,3.74 -15.18,14.96 -11.43,25.01 2.92,7.83 10.33,12.7 18.23,12.7 2.26,0 4.55,-0.42 6.79,-1.23 40.76,-15.17 83.2,-26.96 126.95,-34.93l0 2313.19zm-620.84 -1751.18c-8.99,0 -17.08,6.32 -19.01,15.45 -10.8,51.16 -16.65,104.11 -17.06,158.33 -0.09,10.72 8.55,19.51 19.3,19.61 0.04,0 0.1,0 0.16,0 10.67,0 19.37,-8.64 19.45,-19.33 0.39,-51.61 5.97,-101.95 16.22,-150.56 2.22,-10.52 -4.51,-20.85 -15.02,-23.08 -1.35,-0.28 -2.7,-0.42 -4.04,-0.42zm123.34 -283.42c-6.14,0 -12.16,2.86 -15.95,8.25 -30.4,43.33 -56.56,89.82 -77.94,138.89 -4.29,9.88 0.22,21.35 10.09,25.61 2.52,1.1 5.15,1.63 7.74,1.63 7.51,0 14.67,-4.38 17.86,-11.72 20.3,-46.63 45.2,-90.84 74.1,-132.04 6.17,-8.78 4.05,-20.92 -4.74,-27.09 -3.4,-2.4 -7.3,-3.53 -11.16,-3.53zm224.34 -212.73c-3.51,0 -7.08,0.96 -10.28,2.97 -45.24,28.25 -87.43,60.96 -125.95,97.47 -7.8,7.41 -8.13,19.72 -0.73,27.52 3.82,4.02 8.97,6.06 14.12,6.06 4.8,0 9.62,-1.76 13.38,-5.36 36.65,-34.71 76.78,-65.83 119.8,-92.71 9.11,-5.68 11.89,-17.67 6.2,-26.81 -3.69,-5.89 -10.05,-9.14 -16.54,-9.14z"/>
   <path class="fil2" d="M3205.11 6675.66l-155.66 0c-10.75,0 -19.46,8.72 -19.46,19.48 0,10.76 8.71,19.43 19.46,19.43l155.66 0c10.74,0 19.44,-8.67 19.44,-19.43 0,-10.76 -8.7,-19.48 -19.44,-19.48zm-313.79 9.42c-53.32,8.29 -104.88,21.87 -154.14,40.22 -10.07,3.74 -15.18,14.96 -11.43,25.01 3.74,10.09 14.95,15.2 25.02,11.47 46.81,-17.43 95.83,-30.38 146.52,-38.25 10.62,-1.62 17.9,-11.57 16.24,-22.19 -1.65,-10.61 -11.59,-17.88 -22.21,-16.26zm-297.04 110.6c-45.24,28.25 -87.43,60.96 -125.95,97.47 -7.8,7.41 -8.13,19.72 -0.73,27.52 7.39,7.79 19.7,8.11 27.5,0.7 36.65,-34.71 76.78,-65.83 119.8,-92.71 9.11,-5.68 11.89,-17.67 6.2,-26.81 -5.71,-9.1 -17.71,-11.89 -26.82,-6.17zm-230.01 218.01c-30.4,43.33 -56.56,89.82 -77.94,138.89 -4.29,9.88 0.22,21.35 10.09,25.61 9.85,4.31 21.32,-0.21 25.6,-10.09 20.3,-46.63 45.2,-90.84 74.1,-132.04 6.17,-8.78 4.05,-20.92 -4.74,-27.09 -8.81,-6.18 -20.93,-4.06 -27.11,4.72zm-126.4 290.62c-10.8,51.16 -16.65,104.11 -17.06,158.33 -0.09,10.72 8.55,19.51 19.3,19.61 10.75,0.07 19.53,-8.57 19.61,-19.33 0.39,-51.61 5.97,-101.95 16.22,-150.56 2.22,-10.52 -4.51,-20.85 -15.02,-23.08 -10.51,-2.18 -20.83,4.52 -23.05,15.03zm-17.09 314.15l0 155.65c0,10.72 8.71,19.43 19.46,19.43 10.75,0 19.45,-8.71 19.45,-19.43l0 -155.65c0,-10.76 -8.7,-19.47 -19.45,-19.47 -10.75,0 -19.46,8.71 -19.46,19.47zm0 311.29l0 155.68c0,10.73 8.71,19.44 19.46,19.44 10.75,0 19.45,-8.71 19.45,-19.44l0 -155.68c0,-10.72 -8.7,-19.44 -19.45,-19.44 -10.75,0 -19.46,8.72 -19.46,19.44zm0 311.32l0 155.68c0,10.72 8.71,19.44 19.46,19.44 10.75,0 19.45,-8.72 19.45,-19.44l0 -155.68c0,-10.76 -8.7,-19.43 -19.45,-19.43 -10.75,0 -19.46,8.67 -19.46,19.43zm0 311.32l0 155.65c0,10.76 8.71,19.47 19.46,19.47 10.75,0 19.45,-8.71 19.45,-19.47l0 -155.65c0,-10.75 -8.7,-19.47 -19.45,-19.47 -10.75,0 -19.46,8.72 -19.46,19.47zm0 311.33l0 155.65c0,10.76 8.71,19.47 19.46,19.47 10.75,0 19.45,-8.71 19.45,-19.47l0 -155.65c0,-10.76 -8.7,-19.47 -19.45,-19.47 -10.75,0 -19.46,8.71 -19.46,19.47zm0 311.33l0 155.64c0,10.76 8.71,19.48 19.46,19.48 10.75,0 19.45,-8.72 19.45,-19.48l0 -155.64c0,-10.76 -8.7,-19.48 -19.45,-19.48 -10.75,0 -19.46,8.72 -19.46,19.48zm0 311.32l0 155.65c0,10.76 8.71,19.44 19.46,19.44 10.75,0 19.45,-8.68 19.45,-19.44l0 -155.65c0,-10.76 -8.7,-19.47 -19.45,-19.47 -10.75,0 -19.46,8.71 -19.46,19.47zm0 311.3l0 155.68c0,10.72 8.71,19.43 19.46,19.43 10.75,0 19.45,-8.71 19.45,-19.43l0 -155.68c0,-10.73 -8.7,-19.44 -19.45,-19.44 -10.75,0 -19.46,8.71 -19.46,19.44zm0 311.32l0 155.68c0,10.73 8.71,19.44 19.46,19.44 10.75,0 19.45,-8.71 19.45,-19.44l0 -155.68c0,-10.72 -8.7,-19.44 -19.45,-19.44 -10.75,0 -19.46,8.72 -19.46,19.44zm0 311.33l0 155.64c0,10.76 8.71,19.48 19.46,19.48 10.75,0 19.45,-8.72 19.45,-19.48l0 -155.64c0,-10.76 -8.7,-19.48 -19.45,-19.48 -10.75,0 -19.46,8.72 -19.46,19.48zm0 311.32l0 155.65c0,10.76 8.71,19.47 19.46,19.47 10.75,0 19.45,-8.71 19.45,-19.47l0 -155.65c0,-10.76 -8.7,-19.47 -19.45,-19.47 -10.75,0 -19.46,8.71 -19.46,19.47zm0 311.33l0 155.65c0,10.76 8.71,19.47 19.46,19.47 10.75,0 19.45,-8.71 19.45,-19.47l0 -155.65c0,-10.76 -8.7,-19.47 -19.45,-19.47 -10.75,0 -19.46,8.71 -19.46,19.47zm0 311.29l0 155.68c0,10.76 8.71,19.44 19.46,19.44 10.75,0 19.45,-8.68 19.45,-19.44l0 -155.68c0,-10.72 -8.7,-19.44 -19.45,-19.44 -10.75,0 -19.46,8.72 -19.46,19.44zm0 311.33l0 48.65c0,37.07 2.55,73.55 7.47,109.32 1.47,10.62 11.3,18.06 21.94,16.62 10.64,-1.48 18.09,-11.29 16.61,-21.94 -4.68,-34.01 -7.11,-68.73 -7.11,-104l0 -48.65c0,-10.73 -8.7,-19.44 -19.45,-19.44 -10.75,0 -19.46,8.71 -19.46,19.44zm45.03 312.74c17.86,50.58 40.71,98.81 67.94,144.11 5.54,9.2 17.49,12.17 26.71,6.63 9.2,-5.54 12.18,-17.5 6.64,-26.71 -25.89,-43.04 -47.61,-88.9 -64.59,-136.98 -3.57,-10.13 -14.69,-15.45 -24.82,-11.85 -10.13,3.56 -15.45,14.67 -11.88,24.8zm163.27 271.67c35.92,39.2 75.73,74.75 118.79,106.09 8.7,6.31 20.86,4.41 27.19,-4.32 6.32,-8.68 4.39,-20.85 -4.3,-27.16 -40.97,-29.81 -78.83,-63.64 -112.99,-100.89 -7.26,-7.94 -19.56,-8.47 -27.49,-1.2 -7.91,7.27 -8.45,19.57 -1.2,27.48zm256.33 186.37c47.93,21.84 98.42,39.05 150.88,51.04 10.49,2.42 20.92,-4.16 23.32,-14.63 2.4,-10.47 -4.15,-20.92 -14.62,-23.29 -49.89,-11.42 -97.87,-27.8 -143.44,-48.54 -9.77,-4.47 -21.32,-0.13 -25.77,9.64 -4.45,9.77 -0.14,21.3 9.63,25.78l0 0zm308.9 70.76c6.52,0.18 13.07,0.25 19.63,0.25l136.5 0c10.75,0 19.46,-8.71 19.46,-19.47 0,-10.72 -8.71,-19.43 -19.46,-19.43l-136.5 0c-6.25,0 -12.48,-0.07 -18.69,-0.25 -10.74,-0.25 -19.65,8.25 -19.93,19.02 -0.26,10.72 8.24,19.65 18.99,19.88zm311.8 0.25l155.65 0c10.74,0 19.45,-8.71 19.45,-19.47 0,-10.72 -8.71,-19.43 -19.45,-19.43l-155.65 0c-10.75,0 -19.47,8.71 -19.47,19.43 0,10.76 8.72,19.47 19.47,19.47zm311.31 0l155.66 0c10.75,0 19.46,-8.71 19.46,-19.47 0,-10.72 -8.71,-19.43 -19.46,-19.43l-155.66 0c-10.75,0 -19.46,8.71 -19.46,19.43 0,10.76 8.71,19.47 19.46,19.47zm311.33 0l155.66 0c10.74,0 19.44,-8.71 19.44,-19.47 0,-10.72 -8.7,-19.43 -19.44,-19.43l-155.66 0c-10.75,0 -19.46,8.71 -19.46,19.43 0,10.76 8.71,19.47 19.46,19.47zm311.31 0l155.66 0c10.75,0 19.46,-8.71 19.46,-19.47 0,-10.72 -8.71,-19.43 -19.46,-19.43l-155.66 0c-10.73,0 -19.46,8.71 -19.46,19.43 0,10.76 8.73,19.47 19.46,19.47zm311.33 0l155.66 0c10.73,0 19.46,-8.71 19.46,-19.47 0,-10.72 -8.73,-19.43 -19.46,-19.43l-155.66 0c-10.75,0 -19.46,8.71 -19.46,19.43 0,10.76 8.71,19.47 19.46,19.47zm311.32 0l155.65 0c10.75,0 19.46,-8.71 19.46,-19.47 0,-10.72 -8.71,-19.43 -19.46,-19.43l-155.65 0c-10.75,0 -19.47,8.71 -19.47,19.43 0,10.76 8.72,19.47 19.47,19.47zm311.33 0l155.64 0c10.76,0 19.47,-8.71 19.47,-19.47 0,-10.72 -8.71,-19.43 -19.47,-19.43l-155.64 0c-10.76,0 -19.48,8.71 -19.48,19.43 0,10.76 8.72,19.47 19.48,19.47zm311.32 0l155.75 0c10.73,-0.07 19.41,-8.82 19.37,-19.54 -0.07,-10.76 -8.82,-19.43 -19.58,-19.36l-155.54 0c-10.76,0 -19.47,8.71 -19.47,19.43 0,10.76 8.71,19.47 19.47,19.47l0 0zm314.12 -16.61c52.7,-10.98 103.54,-27.17 151.87,-48.05 9.87,-4.23 14.39,-15.69 10.16,-25.57 -4.27,-9.84 -15.74,-14.4 -25.58,-10.13 -45.97,19.83 -94.26,35.21 -144.39,45.65 -10.51,2.2 -17.29,12.49 -15.1,23 2.19,10.54 12.49,17.28 23.04,15.1zm291 -125.59c43.71,-30.48 84.21,-65.26 120.86,-103.71 7.41,-7.77 7.13,-20.12 -0.67,-27.52 -7.76,-7.41 -20.07,-7.13 -27.51,0.66 -34.86,36.59 -73.38,69.65 -114.94,98.64 -8.82,6.18 -10.97,18.28 -4.83,27.1 6.14,8.81 18.27,10.96 27.09,4.83zm218.69 -229.37c28.12,-44.77 51.93,-92.5 70.77,-142.7 3.77,-10.06 -1.31,-21.28 -11.36,-25.05 -10.06,-3.77 -21.28,1.31 -25.09,11.36 -17.92,47.69 -40.53,93.1 -67.27,135.68 -5.72,9.1 -3,21.09 6.1,26.81 9.1,5.71 21.13,3 26.85,-6.1zm111.41 -296.73c6.45,-40.67 9.77,-82.37 9.77,-124.84 0,-10.76 -8.72,-19.48 -19.44,-19.48 -10.76,0 -19.47,8.72 -19.47,19.48 0,40.42 -3.18,80.08 -9.28,118.78 -1.69,10.62 5.54,20.56 16.16,22.26 10.61,1.69 20.6,-5.58 22.26,-16.2z"/>
   <path class="fil2" d="M6215.26 2689.31l0 -155.65c0,-10.72 -8.71,-19.43 -19.47,-19.43 -10.73,0 -19.44,8.71 -19.44,19.43l0 155.65c0,10.76 8.71,19.47 19.44,19.47 10.76,0 19.47,-8.71 19.47,-19.47zm0 -311.29l0 -155.68c0,-10.73 -8.71,-19.44 -19.47,-19.44 -10.73,0 -19.44,8.71 -19.44,19.44l0 155.68c0,10.72 8.71,19.44 19.44,19.44 10.76,0 19.47,-8.72 19.47,-19.44zm0 -311.33l0 -155.64c0,-10.76 -8.71,-19.48 -19.47,-19.48 -10.73,0 -19.44,8.72 -19.44,19.48l0 155.64c0,10.73 8.71,19.44 19.44,19.44 10.76,0 19.47,-8.71 19.47,-19.44zm9.07 -306.77c10.09,-49.68 28.25,-96.38 53.09,-138.75 5.43,-9.28 2.33,-21.2 -6.95,-26.6 -9.28,-5.47 -21.2,-2.36 -26.64,6.91 -26.95,46.01 -46.7,96.73 -57.64,150.71 -2.15,10.51 4.66,20.78 15.21,22.93 10.51,2.12 20.77,-4.69 22.93,-15.2zm148.16 -252.95c37.4,-32.35 80.12,-58.7 126.65,-77.57 9.98,-4.02 14.78,-15.38 10.72,-25.33 -4.02,-9.95 -15.38,-14.78 -25.33,-10.73 -50.55,20.47 -96.94,49.08 -137.51,84.21 -8.11,7.02 -9.03,19.3 -1.97,27.45 7.02,8.11 19.29,8.99 27.44,1.97zm271.61 -109.92c8.46,-0.46 16.96,-0.71 25.54,-0.71l129.04 0c10.73,0 19.44,-8.71 19.44,-19.44 0,-10.75 -8.71,-19.47 -19.44,-19.47l-129.04 0c-9.28,0 -18.52,0.25 -27.7,0.78 -10.72,0.56 -18.94,9.77 -18.34,20.49 0.6,10.73 9.77,18.95 20.5,18.35zm310.23 -0.71l155.64 0c10.76,0 19.48,-8.71 19.48,-19.44 0,-10.75 -8.72,-19.47 -19.48,-19.47l-155.64 0c-10.76,0 -19.47,8.72 -19.47,19.47 0,10.73 8.71,19.44 19.47,19.44zm311.33 0l155.64 0c10.76,0 19.47,-8.71 19.47,-19.44 0,-10.75 -8.71,-19.47 -19.47,-19.47l-155.64 0c-10.76,0 -19.48,8.72 -19.48,19.47 0,10.73 8.72,19.44 19.48,19.44zm311.32 0l155.65 0c10.76,0 19.47,-8.71 19.47,-19.44 0,-10.75 -8.71,-19.47 -19.47,-19.47l-155.65 0c-10.76,0 -19.47,8.72 -19.47,19.47 0,10.73 8.71,19.44 19.47,19.44zm311.33 0l155.64 0c10.76,0 19.48,-8.71 19.48,-19.44 0,-10.75 -8.72,-19.47 -19.48,-19.47l-155.64 0c-10.76,0 -19.48,8.72 -19.48,19.47 0,10.73 8.72,19.44 19.48,19.44zm311.29 0l155.68 0c10.72,0 19.44,-8.71 19.44,-19.44 0,-10.75 -8.72,-19.47 -19.44,-19.47l-155.68 0c-10.73,0 -19.44,8.72 -19.44,19.47 0,10.73 8.71,19.44 19.44,19.44zm311.33 0l155.68 0c10.72,0 19.43,-8.71 19.43,-19.44 0,-10.75 -8.71,-19.47 -19.43,-19.47l-155.68 0c-10.73,0 -19.44,8.72 -19.44,19.47 0,10.73 8.71,19.44 19.44,19.44zm311.32 0l155.68 0c10.73,0 19.44,-8.71 19.44,-19.44 0,-10.75 -8.71,-19.47 -19.44,-19.47l-155.68 0c-10.76,0 -19.44,8.72 -19.44,19.47 0,10.73 8.68,19.44 19.44,19.44zm311.33 0l155.63 0c10.76,0 19.48,-8.71 19.48,-19.44 0,-10.75 -8.72,-19.47 -19.48,-19.47l-155.63 0c-10.76,0 -19.47,8.72 -19.47,19.47 0,10.73 8.71,19.44 19.47,19.44zm311.31 0l155.65 0c10.76,0 19.47,-8.71 19.47,-19.44 0,-10.75 -8.71,-19.47 -19.47,-19.47l-155.65 0c-10.75,0 -19.47,8.72 -19.47,19.47 0,10.73 8.72,19.44 19.47,19.44zm311.33 0l155.65 0c10.76,0 19.47,-8.71 19.47,-19.44 0,-10.75 -8.71,-19.47 -19.47,-19.47l-155.65 0c-10.76,0 -19.47,8.72 -19.47,19.47 0,10.73 8.71,19.44 19.47,19.44zm311.29 0l13.51 0c46.78,0 91.87,7.06 134.27,20.15 10.27,3.17 21.17,-2.58 24.34,-12.84 3.18,-10.27 -2.57,-21.17 -12.84,-24.35 -46.11,-14.21 -95.07,-21.87 -145.77,-21.87l-13.51 0c-10.72,0 -19.44,8.72 -19.44,19.47 0,10.73 8.72,19.44 19.44,19.44zm280.6 86.72c40.29,29.31 75.57,65.12 104.32,105.83 6.21,8.75 18.34,10.86 27.13,4.66 8.78,-6.21 10.86,-18.35 4.65,-27.13 -31.22,-44.17 -69.49,-82.98 -113.2,-114.83 -8.72,-6.32 -20.89,-4.38 -27.2,4.3 -6.32,8.68 -4.41,20.85 4.3,27.17zm169.02 239.53c11.89,40.61 18.31,83.61 18.31,128.13 0,10.76 8.71,19.47 19.43,19.47 10.76,0 19.48,-8.71 19.48,-19.47 0,-48.26 -6.95,-94.93 -19.9,-139.06 -3.03,-10.31 -13.83,-16.23 -24.13,-13.2 -10.33,3 -16.23,13.83 -13.19,24.13z"/>
   <path class="fil0" d="M16022.65 14816.74c0,521.43 -3024.97,944.18 -6756.44,944.18 -3731.49,0 -6756.46,-422.75 -6756.46,-944.18 0,-521.44 3024.97,-944.18 6756.46,-944.18 3731.47,0 6756.44,422.74 6756.44,944.18z"/>
   <path class="fil1" d="M9266.21 15760.92c-3731.49,0 -6756.46,-422.75 -6756.46,-944.18 0,-521.44 3024.97,-944.18 6756.46,-944.18 3731.47,0 6756.44,422.74 6756.44,944.18 0,521.43 -3024.97,944.18 -6756.44,944.18z"/>
   <path class="fil3" d="M15635.26 3814.53l0 6352.11c0,432.36 -350.66,782.99 -782.95,782.99l-11172.16 0c-432.36,0 -782.99,-350.63 -782.99,-782.99l0 -6352.11c0,-18.7 0.8,-36.97 2.36,-55.25 28.01,-406.68 366.95,-728.09 780.63,-728.09l11172.16 0c413.63,0 752.61,321.41 780.59,728.09 1.55,18.28 2.36,36.55 2.36,55.25z"/>
   <path class="fil2" d="M15635.26 3814.53l-19.47 0 0 6352.11c0,210.85 -85.44,401.6 -223.66,539.85 -138.22,138.22 -329,223.66 -539.82,223.66l-11172.16 0c-210.87,0 -401.63,-85.44 -539.86,-223.66 -138.22,-138.22 -223.66,-329 -223.67,-539.85l0 -6352.11c0,-18.13 0.77,-35.88 2.27,-53.62l0.03 -0.29c27.31,-396.52 357.86,-710.03 761.23,-710l11172.16 0c403.33,-0.03 733.88,313.48 761.19,710l0.03 0.29c1.52,17.74 2.26,35.49 2.26,53.62l38.91 0c0,-19.23 -0.81,-38.1 -2.4,-56.9l-19.4 1.65 19.44 -1.34c-28.75,-416.87 -376.1,-746.19 -800.03,-746.23l-11172.16 0c-423.98,0.04 -771.32,329.36 -800.05,746.23l19.42 1.34 -19.4 -1.65c-1.59,18.8 -2.4,37.67 -2.4,56.9l0 6352.11c0.01,443.08 359.32,802.42 802.43,802.46l11172.16 0c443.05,-0.04 802.39,-359.38 802.39,-802.46l0 -6352.11 -19.44 0z"/>
   <path class="fil2" d="M14560.38 10654.28l-10548.43 0c-405.25,0 -733.79,-328.54 -733.79,-733.78l0 -5867.78 12016 0 0 5867.78c0,405.24 -328.54,733.78 -733.78,733.78z"/>
   <path class="fil4" d="M14560.21 10635.02l-1131.43 0c-69.46,-154.91 -146.09,-313.2 -228.6,-465.17l297.85 -213.33 -200.41 -471.31c63.81,-78.21 117.93,-164.22 160.72,-255.66l510.93 -28.01 77.86 -468.95 -474.77 -191.06c-10.9,-100.01 -33.87,-198.09 -68.09,-292.63l341.67 -380.57 -276.72 -386.82 -471.24 199.99c-78.21,-62.65 -163.44,-115.57 -254.49,-157.97l-27.63 -511.35 -469.33 -77.44 -192.23 472.83c-99.63,11.68 -197.31,34.64 -291.5,68.47l-77.19 -69.07c-2.5,-93.13 27.62,-194.94 27.62,-194.94l-60.75 -53.59c210.97,-81.35 387.74,-278.98 362.31,-518.94 -10.48,-98.92 -83.19,-170.04 -177.56,-193.53 -22.29,-5.54 -44.2,-7.94 -65.75,-7.94 -98.92,0 -190.96,51.01 -283.64,85.94 -45.54,17.18 -90.91,24.02 -136.13,24.02 -159.11,0.04 -316.97,-84.63 -478.83,-102.02 -32.91,-3.53 -67.17,-5.68 -101.78,-5.68 -152.47,0 -311.36,41.31 -386.82,185.38 0,0 -319.37,37.5 -459.21,299.79 -139.91,262.29 126.02,625.41 126.02,625.41 0,0 15.24,-18.45 41.59,-27.34l-6.35 6.74c0,0 -76.06,67.24 -45.86,237.1 6.21,34.78 14.07,68.58 23.14,100.4l-208.1 9.74c-38.46,-64.1 -84.49,-123.55 -136.6,-176.53l112.64 -363.72 -307.02 -175.89 -256.86 280.28c-72.32,-17.71 -146.51,-26.99 -221.18,-28.19l-177.84 -337.11 -341.27 92.85 18.02 380.72c-64.1,38.48 -123.5,84.49 -176.88,136.49l-363.85 -112.33 -11.89 20.67 0 -491.91 280.92 0 138.92 -620.29c119.87,-33.86 235.05,-82.12 343.64,-142.8l536.64 341.24 417.54 -417.51 -338.95 -536.65c60.29,-108.97 108.2,-224.15 142.07,-344.03l621.06 -138.53 0 -590.73 -621.06 -137.76c-33.87,-119.87 -81.35,-235.83 -142.07,-344.77l62.62 -98.64 5740.58 0 0 5848.17c0,197.24 -79.91,375.74 -209.2,505.14 -129.36,129.36 -307.83,209.34 -505.28,209.34zm-5404.84 0l-1062.59 0 0 -1764.77 226.06 -10.69c37.96,64.31 83.61,123.65 136.1,176.78l-113.21 361.84 307.03 175.89 255.55 -277.88c72.53,18.21 146.72,27.48 221.68,27.94l177.34 337.33 120.22 -32.7c-95.57,136.56 -194.2,598.24 -268.18,1006.26zm-5715.72 -287.23c-56.11,-75.14 -97.77,-161.68 -120.89,-255.52l120.89 134.16 0 121.36zm-141.84 -557.22l0 -559.57 83.66 23.7c14.39,63.93 33.86,126.55 58.18,187.22l0 150.18 -141.84 198.47zm6343.55 -292.06l-11.75 -255.09 -2.54 -55.71c64.8,-38.2 124.64,-84.1 178.61,-136.66l363.57 113.03 150.25 -262.65 25.68 -44.41 -281.69 -256.54c18.24,-72.53 27.66,-147.07 28.47,-221.9l336.83 -177.08 -26.14 -95.96c11.85,0.35 19.33,0.39 19.33,0.39 0,0 85.66,185.66 162.81,302.95l-37.32 224.51 77.08 31.12 11.75 4.72c1.2,24.81 2.29,50.38 3.21,75.71 -58.35,12.95 -121.32,42.62 -163.52,106.82 -0.56,0.85 -1.13,1.66 -1.65,2.54 -0.11,0.14 -0.22,0.32 -0.32,0.5 -0.85,1.3 -1.66,2.61 -2.47,3.95l0 0c-29.21,75.63 -35.17,173.18 -35.17,240.31 0,46.5 2.85,78.42 2.85,78.42 0,0 -6.98,2.72 -20.21,7.41 -96.2,35.88 -515.34,193.53 -777.66,313.62zm2655.21 -203.24c-191.45,0 -380.08,-89.21 -499.92,-256.78 -197.66,-275.52 -133.88,-659.2 141.68,-856.5 108.3,-77.65 233.29,-114.94 357.04,-114.94 191.46,0 380.02,89.22 499.86,256.53 197.66,275.95 133.87,659.66 -141.68,856.97 -108.3,77.44 -233.26,114.72 -356.98,114.72zm-3160.35 -471.02c-201.26,0 -385.55,-133.88 -440.79,-337.08 -66.36,-243.84 77.57,-495.08 320.92,-561.19 40.22,-10.94 80.65,-16.16 120.4,-16.16 201.29,0 385.54,133.88 440.79,337.07 66.36,243.84 -77.58,495.05 -320.92,561.2 -40.22,10.93 -80.65,16.16 -120.4,16.16zm-5838.41 -236.65l0 -4515.23 3329.67 0 60.04 95.5c-61.1,108.59 -108.58,224.16 -141.67,344.38l-621.07 138.19 0 590.72 621.07 138.54c31.29,114.37 75.39,224.96 131.72,329.07l-2755.98 0c-266.18,0 -481.92,215.72 -481.94,481.93l0 1543.4 -139.91 125.87 139.91 247.26 0 407.31c-6.81,17.46 -13.23,35.1 -19.26,52.92l-122.58 20.14zm4794.97 -182.24l0 -375.38 117.54 106.85c-18.2,72.5 -27.48,146.68 -27.8,221.29l-89.74 47.24zm-10.16 -2693.35c-421.47,0 -763.13,-341.66 -763.13,-763.12 0,-421.43 341.66,-763.1 763.13,-763.1 421.43,0 763.13,341.67 763.13,763.1 0,421.46 -341.7,763.12 -763.13,763.12z"/>
   <path class="fil5" d="M15632.9 3759.28l-12733.4 0c28.03,-406.68 366.97,-728.09 780.65,-728.09l11172.16 0c413.63,0 752.61,321.41 780.59,728.09z"/>
   <path class="fil2" d="M15632.9 3759.28l0 -19.47 -12733.4 0 0 19.47 19.42 1.34c27.31,-396.52 357.86,-710.03 761.23,-710l11172.16 0c403.33,-0.03 733.92,313.48 761.19,710l19.4 -1.34 0 -19.47 0 19.47 19.44 -1.34c-28.75,-416.87 -376.1,-746.19 -800.03,-746.23l-11172.16 0 0 0c-423.98,0.04 -771.32,329.36 -800.05,746.23l-1.43 20.78 12775.08 0 -1.41 -20.78 -19.44 1.34z"/>
   <path class="fil2" d="M4464.25 3395.22c0,76.59 -62.09,138.67 -138.67,138.67 -76.61,0 -138.71,-62.08 -138.71,-138.67 0,-76.59 62.1,-138.68 138.71,-138.68 76.58,0 138.67,62.09 138.67,138.68z"/>
   <path class="fil2" d="M5050.63 3395.22c0,76.59 -62.06,138.67 -138.67,138.67 -76.6,0 -138.68,-62.08 -138.68,-138.67 0,-76.59 62.08,-138.68 138.68,-138.68 76.61,0 138.67,62.09 138.67,138.68z"/>
   <path class="fil2" d="M5637.06 3395.22c0,76.59 -62.09,138.67 -138.68,138.67 -76.62,0 -138.71,-62.08 -138.71,-138.67 0,-76.59 62.09,-138.68 138.71,-138.68 76.59,0 138.68,62.09 138.68,138.68z"/>
   <path class="fil2" d="M15294.16 4052.94l-19.47 0 0 5867.6c0,197.24 -79.91,375.74 -209.2,505.14 -129.36,129.36 -307.83,209.34 -505.28,209.34l-10548.31 0c-346.99,0.03 -636.05,-247.83 -700.46,-575.81l-1.13 -5.82 -4.57 -4.58 -13.77 13.76 19.46 0 0 -3.46 -0.36 -1.87c-8.71,-44.27 -13.26,-90.1 -13.26,-136.7l0 -5848.17 11996.35 0 0 -19.43 -19.47 0 19.47 0 0 -19.48 -12035.26 0 0 5887.08c0,49.1 4.78,97.47 13.98,144.21l19.09 -3.74 -19.45 0 0 9.63 6.07 6.07 13.76 -13.76 -19.08 3.74c67.92,346.04 372.69,607.2 738.63,607.24l10548.31 0c416.24,0 753.39,-337.54 753.39,-753.39l0 -5887.08 -19.44 0 0 19.48z"/>
   <path class="fil2" d="M14914.61 5982c-199.99,0 -361.92,-161.89 -361.92,-361.92 0,-199.6 161.93,-361.91 361.92,-361.91 200.02,0 361.95,162.31 361.95,361.91 0,200.03 -161.93,361.92 -361.95,361.92zm368.16 -1021.51c-51.37,-28.78 -106.22,-51.4 -163.06,-67.34l-65.79 -294.57 -280.18 0 -65.37 294.57c-57.22,15.59 -112.07,38.56 -163.44,67.34l-252.94 -161.89 -198.08 198.09 159.17 252.94c-29.21,51.75 -51.79,106.61 -67.35,163.44l-294.6 65.37 0 280.21 294.6 65.76c15.56,57.57 38.14,112.85 67.35,164.61l-161.89 254.49 198.08 198.08 254.5 -161.89c51.36,29.18 106.22,51.76 163.44,67.7l65.41 294.22 280.17 0 65.72 -294.22c56.87,-15.94 111.69,-38.91 163.06,-67.7l12.87 8.15 0 -1334.77 -11.67 7.41z"/>
   <path class="fil2" d="M8082.62 5712.01c-421.47,0 -763.13,-341.66 -763.13,-763.12 0,-421.43 341.66,-763.1 763.13,-763.1 421.43,0 763.13,341.67 763.13,763.1 0,421.46 -341.7,763.12 -763.13,763.12zm2152 -467.74l0 -590.73 -621.06 -137.76c-33.87,-119.87 -81.35,-235.83 -142.07,-344.77l75.11 -118.32 -2931.47 0 72.39 115.18c-61.1,108.59 -108.58,224.16 -141.67,344.38l-621.07 138.19 0 590.72 621.07 138.54c33.09,121.04 80.57,237.77 141.67,347.13l-341.31 536.65 417.97 417.51 536.22 -341.24c108.98,61.06 224.55,108.94 344.81,142.8l137.76 620.29 590.73 0 138.92 -620.29c119.87,-33.86 235.05,-82.12 343.64,-142.8l536.64 341.24 417.54 -417.51 -338.95 -536.65c60.29,-108.97 108.2,-224.15 142.07,-344.03l621.06 -138.53z"/>
   <path class="fil2" d="M5071.94 8568.62c-224.14,-249.06 -607.84,-269.31 -856.91,-45.15 -249.06,224.15 -269.29,607.87 -45.14,856.93 224.15,249.03 607.85,268.89 856.9,44.73 249.09,-224.12 269.31,-607.48 45.15,-856.51zm1244.53 731.98l24.87 -468.52 -485.63 -136.99c-22.58,-96.13 -56.06,-189.9 -99.63,-278.66l293.41 -412.07 -314.43 -349.07 -439.74 248.67c-84.07,-52.52 -173.57,-95.74 -267.74,-128.02l-84.06 -498.12 -468.53 -24.91 -135.44 487.22c-96.5,21.38 -189.9,54.86 -278.61,98.85l-411.73 -293.44 -349.47 314.43 249.07 440.12c-53.72,83.71 -96.52,173.21 -128.42,267.37l-142.05 23.35 0 634.68 103.13 29.21c21.8,96.88 55.28,190.65 99.62,279.4l-202.75 283.71 13.63 243.2 0 1.56 0.38 0.38 208.98 231.92 440.52 -248.64c84.05,54.08 174.35,97.65 268.53,129.58l80.16 478.26 0 0.42 3.88 19.83 468.53 24.9 12.46 -44.73 0 -0.42 122.98 -442.07c97.29,-21.76 190.7,-54.85 280.2,-98.85l410.91 293.06 349.46 -314.08 -248.28 -440.51c52.95,-83.65 95.74,-173.15 126.89,-266.95l498.9 -84.07z"/>
   <path class="fil2" d="M9256.62 8808.09c-243.83,66.36 -495.05,-77.58 -561.19,-320.92 -66.36,-243.84 77.57,-495.08 320.92,-561.19 243.83,-66.36 495.04,77.57 561.19,320.91 66.36,243.84 -77.58,495.05 -320.92,561.2zm806.87 -207.61c18.24,-72.53 27.66,-147.07 28.47,-221.9l336.83 -177.08 -93.1 -341.77 -380.18 17.78c-38.46,-64.1 -84.49,-123.55 -136.6,-176.53l112.64 -363.72 -307.02 -175.89 -256.86 280.28c-72.32,-17.71 -146.51,-26.99 -221.18,-28.19l-177.84 -337.11 -341.27 92.85 18.02 380.72c-64.1,38.48 -123.5,84.49 -176.88,136.49l-363.85 -112.33 -176.11 306.57 281.76 256.18c-18.2,72.5 -27.48,146.68 -27.8,221.29l-337.46 177.69 93.06 341.78 380.72 -18.03c37.96,64.31 83.61,123.65 136.1,176.78l-113.21 361.84 307.03 175.89 255.55 -277.88c72.53,18.21 146.72,27.48 221.68,27.94l177.34 337.33 341.24 -92.85 -14.96 -325.19 -2.54 -55.71c64.8,-38.2 124.64,-84.1 178.61,-136.66l363.57 113.03 150.25 -262.65 25.68 -44.41 -281.69 -256.54z"/>
   <path class="fil2" d="M12653.55 9180.55c-275.87,197.27 -659.59,133.85 -856.9,-142.06 -197.66,-275.52 -133.88,-659.2 141.68,-856.5 275.87,-197.73 659.59,-133.88 856.9,141.59 197.66,275.95 133.87,659.66 -141.68,856.97zm1315.72 20.99l77.86 -468.95 -474.77 -191.06c-10.9,-100.01 -33.87,-198.09 -68.09,-292.63l341.67 -380.57 -276.72 -386.82 -471.24 199.99c-78.21,-62.65 -163.44,-115.57 -254.49,-157.97l-27.63 -511.35 -469.33 -77.44 -192.23 472.83c-99.63,11.68 -197.31,34.64 -291.5,68.47l-381.74 -341.66 -386.44 276.68 200.45 470.89c-55.28,69.25 -103.15,143.19 -142.84,221.79 -5.46,10.9 -10.9,21.8 -15.94,32.7l-510.97 28.44 -77.85 468.51 77.08 31.12 397.68 160.34c10.94,99.23 33.48,197.27 68.13,291.46l-341.7 381.74 276.71 386.47 471.25 -200.84c77.85,63.43 163.44,116.77 254.14,159.18l26.45 509.02 468.95 77.43 191.81 -469.33c100.01,-10.87 198.08,-33.87 292.27,-68.48l380.97 342.06 386.82 -277.04 -200.41 -471.31c63.81,-78.21 117.93,-164.22 160.72,-255.66l510.93 -28.01z"/>
   <path class="fil0" d="M7610.85 11761.19l-3689.26 0c-255.43,0 -462.48,-207.04 -462.48,-462.49l0 -5108c0,-255.45 207.05,-462.49 462.48,-462.49l3689.26 0c255.41,0 462.49,207.04 462.49,462.49l0 5108c0,255.45 -207.08,462.49 -462.49,462.49z"/>
   <path class="fil2" d="M7610.85 11761.19l0 -19.47 -3689.26 0c-122.39,0 -233.03,-49.53 -313.27,-129.75 -80.2,-80.23 -129.74,-190.86 -129.75,-313.27l0 -5108c0.01,-122.42 49.55,-233.05 129.75,-313.27 80.24,-80.22 190.88,-129.75 313.27,-129.75l3689.26 0c122.41,0 233.04,49.53 313.27,129.75 80.22,80.22 129.75,190.85 129.75,313.27l0 5108c0,122.41 -49.53,233.04 -129.75,313.27 -80.23,80.22 -190.86,129.75 -313.27,129.75l0 38.91c266.17,0 481.93,-215.72 481.93,-481.93l0 -5108c0,-266.21 -215.76,-481.93 -481.93,-481.93l-3689.26 0c-266.18,0 -481.92,215.72 -481.94,481.93l0 5108c0.02,266.21 215.76,481.93 481.94,481.93l3689.26 0 0 -19.44z"/>
   <path class="fil5" d="M7610.85 11761.19l0 -19.47 -3689.26 0c-122.39,0 -233.03,-49.53 -313.27,-129.75 -80.2,-80.23 -129.74,-190.86 -129.75,-313.27l0 -5108c0.01,-122.42 49.55,-233.05 129.75,-313.27 80.24,-80.22 190.88,-129.75 313.27,-129.75l3689.26 0c122.41,0 233.04,49.53 313.27,129.75 80.22,80.22 129.75,190.85 129.75,313.27l0 5108c0,122.41 -49.53,233.04 -129.75,313.27 -80.23,80.22 -190.86,129.75 -313.27,129.75l0 19.47z"/>
   <path class="fil6" d="M7610.85 11761.19l0 -19.47c122.41,0 233.04,-49.53 313.27,-129.75 80.22,-80.23 129.75,-190.86 129.75,-313.27l0 -5108c0,-122.42 -49.53,-233.05 -129.75,-313.27 -80.23,-80.22 -190.86,-129.75 -313.27,-129.75l-3689.26 0c-122.39,0 -233.03,49.53 -313.27,129.75 -80.2,80.22 -129.74,190.85 -129.75,313.27l0 5108c0.01,122.41 49.55,233.04 129.75,313.27 80.24,80.22 190.88,129.75 313.27,129.75l3689.26 0 0 19.47 -3689.26 0c-255.43,0 -462.48,-207.04 -462.48,-462.49l0 -5108c0,-255.45 207.05,-462.49 462.48,-462.49l3689.26 0c255.41,0 462.49,207.04 462.49,462.49l0 5108c0,255.45 -207.08,462.49 -462.49,462.49z"/>
   <path class="fil3" d="M8502.88 6646.38l0 5108c0,255.66 -207.04,462.67 -462.7,462.67l-3689.16 0c-255.28,0 -462.32,-207.01 -462.32,-462.67l0 -5108c0,-255.3 207.04,-462.31 462.32,-462.31l3689.16 0c255.66,0 462.7,207.01 462.7,462.31z"/>
   <path class="fil2" d="M8502.88 6646.38l-19.47 0 0 5108c0,122.52 -49.57,233.19 -129.79,313.45 -80.22,80.22 -190.92,129.75 -313.44,129.75l-3689.16 0c-122.33,0 -232.92,-49.53 -313.13,-129.75 -80.18,-80.26 -129.72,-190.93 -129.73,-313.45l0 -5108c0.01,-122.34 49.54,-232.94 129.73,-313.16 80.2,-80.15 190.8,-129.72 313.13,-129.72l3689.16 0c122.52,0 233.22,49.57 313.48,129.76 80.22,80.18 129.75,190.78 129.75,313.12l38.91 0c0,-266.06 -215.72,-481.79 -482.14,-481.79l-3689.16 0c-266.04,0 -481.76,215.73 -481.78,481.79l0 5108c0.02,266.38 215.74,482.11 481.78,482.11l3689.16 0c266.42,0 482.14,-215.73 482.14,-482.11l0 -5108 -19.44 0z"/>
   <path class="fil5" d="M8502.88 6646.38l0 273.55 -4614.18 0 0 -273.55c0,-255.3 207.04,-462.31 462.32,-462.31l3689.16 0c255.66,0 462.7,207.01 462.7,462.31z"/>
   <path class="fil2" d="M8502.88 6646.38l-19.47 0 0 254.07 -4575.25 0 0 -254.07c0.01,-122.34 49.54,-232.94 129.73,-313.16 80.2,-80.15 190.8,-129.72 313.13,-129.72l3689.16 0c122.52,0 233.22,49.57 313.48,129.76 80.22,80.18 129.75,190.78 129.75,313.12l38.91 0c0,-266.06 -215.72,-481.79 -482.14,-481.79l-3689.16 0c-266.04,0 -481.76,215.73 -481.78,481.79l0 293.02 4653.08 0 0 -293.02 -19.44 0z"/>
   <polygon class="fil7" points="4322.63,7427.18 5457.8,7427.18 5457.8,7236.8 4322.63,7236.8 "/>
   <polygon class="fil7" points="4322.63,9134.23 5457.8,9134.23 5457.8,8943.84 4322.63,8943.84 "/>
   <polygon class="fil7" points="4322.63,10682.22 5457.8,10682.22 5457.8,10491.79 4322.63,10491.79 "/>
   <polygon class="fil2" points="4322.63,7847.87 7546.72,7847.87 7546.72,7708.21 4322.63,7708.21 "/>
   <polygon class="fil2" points="4322.63,8111.61 6965.38,8111.61 6965.38,7975.5 4322.63,7975.5 "/>
   <polygon class="fil2" points="4322.63,8374.35 7311.45,8374.35 7311.45,8238.29 4322.63,8238.29 "/>
   <polygon class="fil2" points="4322.63,8636.85 7311.45,8636.85 7311.45,8500.8 4322.63,8500.8 "/>
   <polygon class="fil2" points="4322.63,9395.82 7546.72,9395.82 7546.72,9256.19 4322.63,9256.19 "/>
   <polygon class="fil2" points="4322.63,9659.59 6965.38,9659.59 6965.38,9523.49 4322.63,9523.49 "/>
   <polygon class="fil2" points="4322.63,9922.34 7311.45,9922.34 7311.45,9786.24 4322.63,9786.24 "/>
   <polygon class="fil2" points="4322.63,11095.75 7546.72,11095.75 7546.72,10956.08 4322.63,10956.08 "/>
   <polygon class="fil2" points="4322.63,11359.45 6965.38,11359.45 6965.38,11223.38 4322.63,11223.38 "/>
   <polygon class="fil2" points="4322.63,11622.23 7311.45,11622.23 7311.45,11486.14 4322.63,11486.14 "/>
   <path class="fil3" d="M13702.89 2642.25l0 2064.45c0,304.7 -246.7,551.43 -551.39,551.43l-4755.02 0c-304.34,0 -551.46,-246.73 -551.46,-551.43l0 -2064.45c0,-304.7 247.12,-551.85 551.46,-551.85l4755.02 0c304.69,0 551.39,247.15 551.39,551.85z"/>
   <path class="fil8" d="M13702.89 2642.25l-19.44 0 0 2064.45c0,147.04 -59.48,279.9 -155.75,376.21 -96.31,96.27 -229.17,155.75 -376.2,155.75l-4755.02 0c-146.86,0 -279.75,-59.48 -376.09,-155.75 -96.35,-96.31 -155.89,-229.17 -155.89,-376.21l0 -2064.45c0,-147.04 59.54,-280 155.89,-376.42 96.38,-96.37 229.23,-155.96 376.09,-155.96l4755.02 0c147.03,0 279.89,59.59 376.2,155.93 96.27,96.41 155.75,229.38 155.75,376.45l38.91 0c0,-315.46 -255.41,-571.29 -570.86,-571.29l-4755.02 0c-315.1,0.04 -570.9,255.8 -570.9,571.29l0 2064.45c0,315.46 255.8,570.87 570.9,570.87l4755.02 0c315.45,0 570.86,-255.45 570.86,-570.87l0 -2064.45 -19.47 0z"/>
   <path class="fil5" d="M13702.89 2642.25l0 47.06 -5857.87 0 0 -47.06c0,-304.7 247.12,-551.85 551.46,-551.85l4755.02 0c304.69,0 551.39,247.15 551.39,551.85z"/>
   <path class="fil2" d="M13702.89 2642.25l-19.44 0 0 27.62 -5818.95 0 0 -27.62c0,-147.04 59.54,-280 155.89,-376.42 96.38,-96.37 229.23,-155.96 376.09,-155.96l4755.02 0c147.03,0 279.89,59.59 376.2,155.93 96.27,96.41 155.75,229.38 155.75,376.45l38.91 0c0,-315.46 -255.41,-571.29 -570.86,-571.29l-4755.02 0c-315.1,0.04 -570.9,255.8 -570.9,571.29l0 66.53 5896.78 0 0 -66.53 -19.47 0z"/>
   <path class="fil2" d="M8705.62 2488.51c-32.98,32.98 -86.46,32.98 -119.48,0 -32.99,-32.99 -32.99,-86.47 0,-119.42 33.02,-32.98 86.5,-32.98 119.48,0 32.95,32.95 32.95,86.43 0,119.42z"/>
   <path class="fil2" d="M9097.88 2488.51c-32.95,32.98 -86.43,32.98 -119.42,0 -32.98,-32.99 -32.98,-86.47 0,-119.42 32.99,-32.98 86.47,-32.98 119.42,0 32.98,32.95 32.98,86.43 0,119.42z"/>
   <path class="fil2" d="M9490.16 2488.51c-32.95,32.98 -86.47,32.98 -119.42,0 -32.98,-32.99 -32.98,-86.47 0,-119.42 32.95,-32.98 86.47,-32.98 119.42,0 33.02,32.95 33.02,86.43 0,119.42z"/>
   <path class="fil2" d="M9822.05 4704.66l-155.65 0c-10.76,0 -19.47,8.71 -19.47,19.47 0,10.73 8.71,19.44 19.47,19.44l155.65 0c10.76,0 19.47,-8.71 19.47,-19.44 0,-10.76 -8.71,-19.47 -19.47,-19.47zm-311.33 0l-155.64 0c-10.76,0 -19.48,8.71 -19.48,19.47 0,10.73 8.72,19.44 19.48,19.44l155.64 0c10.76,0 19.48,-8.71 19.48,-19.44 0,-10.76 -8.72,-19.47 -19.48,-19.47zm-311.32 0l-155.64 0c-10.76,0 -19.47,8.71 -19.47,19.47 0,10.73 8.71,19.44 19.47,19.44l155.64 0c10.76,0 19.47,-8.71 19.47,-19.44 0,-10.76 -8.71,-19.47 -19.47,-19.47zm-311.28 0l-155.69 0c-10.75,0 -19.43,8.71 -19.43,19.47 0,10.73 8.68,19.44 19.43,19.44l155.69 0c10.72,0 19.43,-8.71 19.43,-19.44 0,-10.76 -8.71,-19.47 -19.43,-19.47zm-311.33 0l-155.68 0c-10.73,0 -19.44,8.71 -19.44,19.47 0,10.73 8.71,19.44 19.44,19.44l155.68 0c10.72,0 19.44,-8.71 19.44,-19.44 0,-10.76 -8.72,-19.47 -19.44,-19.47zm-311.33 0l-27.44 0 0 -89.29c0,-10.76 -8.72,-19.47 -19.44,-19.47 -10.76,0 -19.47,8.71 -19.47,19.47l0 108.76c0,5.12 2.08,10.13 5.71,13.76 3.6,3.63 8.61,5.68 13.76,5.68l46.88 0c10.73,0 19.44,-8.71 19.44,-19.44 0,-10.76 -8.71,-19.47 -19.44,-19.47zm-27.44 -244.97l0 -155.65c0,-10.76 -8.72,-19.47 -19.44,-19.47 -10.76,0 -19.47,8.71 -19.47,19.47l0 155.65c0,10.76 8.71,19.47 19.47,19.47 10.72,0 19.44,-8.71 19.44,-19.47zm0 -311.33l0 -155.64c0,-10.76 -8.72,-19.48 -19.44,-19.48 -10.76,0 -19.47,8.72 -19.47,19.48l0 155.64c0,10.76 8.71,19.48 19.47,19.48 10.72,0 19.44,-8.72 19.44,-19.48zm0 -311.32l0 -155.65c0,-10.72 -8.72,-19.47 -19.44,-19.47 -10.76,0 -19.47,8.75 -19.47,19.47l0 155.65c0,10.76 8.71,19.47 19.47,19.47 10.72,0 19.44,-8.71 19.44,-19.47zm0 -311.3l0 -155.68c0,-10.72 -8.72,-19.43 -19.44,-19.43 -10.76,0 -19.47,8.71 -19.47,19.43l0 155.68c0,10.73 8.71,19.44 19.47,19.44 10.72,0 19.44,-8.71 19.44,-19.44zm0 -311.32l0 -145.45 -19.44 0 0 19.44 10.19 0c10.76,0 19.48,-8.72 19.48,-19.44 0,-10.76 -8.72,-19.48 -19.48,-19.48l-10.19 0c-5.15,0 -10.16,2.09 -13.76,5.72 -3.63,3.63 -5.71,8.61 -5.71,13.76l0 145.45c0,10.72 8.71,19.44 19.47,19.44 10.72,0 19.44,-8.72 19.44,-19.44zm146.4 -126.01l155.68 0c10.72,0 19.44,-8.72 19.44,-19.44 0,-10.76 -8.72,-19.48 -19.44,-19.48l-155.68 0c-10.72,0 -19.44,8.72 -19.44,19.48 0,10.72 8.72,19.44 19.44,19.44zm311.33 0l155.68 0c10.72,0 19.43,-8.72 19.43,-19.44 0,-10.76 -8.71,-19.48 -19.43,-19.48l-155.68 0c-10.73,0 -19.44,8.72 -19.44,19.48 0,10.72 8.71,19.44 19.44,19.44zm311.32 0l155.67 0c10.73,0 19.44,-8.72 19.44,-19.44 0,-10.76 -8.71,-19.48 -19.44,-19.48l-155.67 0c-10.76,0 -19.44,8.72 -19.44,19.48 0,10.72 8.68,19.44 19.44,19.44zm311.32 0l155.64 0c10.76,0 19.48,-8.72 19.48,-19.44 0,-10.76 -8.72,-19.48 -19.48,-19.48l-155.64 0c-10.76,0 -19.47,8.72 -19.47,19.48 0,10.72 8.71,19.44 19.47,19.44zm311.33 0l155.64 0c10.76,0 19.47,-8.72 19.47,-19.44 0,-10.76 -8.71,-19.48 -19.47,-19.48l-155.64 0c-10.76,0 -19.48,8.72 -19.48,19.48 0,10.72 8.72,19.44 19.48,19.44zm311.32 0l155.65 0c10.76,0 19.47,-8.72 19.47,-19.44 0,-10.76 -8.71,-19.48 -19.47,-19.48l-155.65 0c-10.76,0 -19.47,8.72 -19.47,19.48 0,10.72 8.71,19.44 19.47,19.44zm172.86 99.51l0 155.69c0,10.76 8.72,19.43 19.48,19.43 10.76,0 19.43,-8.67 19.43,-19.43l0 -155.69c0,-10.72 -8.67,-19.43 -19.43,-19.43 -10.76,0 -19.48,8.71 -19.48,19.43zm0 311.33l0 155.68c0,10.73 8.72,19.44 19.48,19.44 10.76,0 19.43,-8.71 19.43,-19.44l0 -155.68c0,-10.72 -8.67,-19.44 -19.43,-19.44 -10.76,0 -19.48,8.72 -19.48,19.44zm0 311.33l0 155.64c0,10.76 8.72,19.48 19.48,19.48 10.76,0 19.43,-8.72 19.43,-19.48l0 -155.64c0,-10.76 -8.67,-19.48 -19.43,-19.48 -10.76,0 -19.48,8.72 -19.48,19.48zm0 311.32l0 155.65c0,10.76 8.72,19.47 19.48,19.47 10.76,0 19.43,-8.71 19.43,-19.47l0 -155.65c0,-10.76 -8.67,-19.47 -19.43,-19.47 -10.76,0 -19.48,8.71 -19.48,19.47zm0 311.33l0 155.65c0,10.76 8.72,19.47 19.48,19.47 10.76,0 19.43,-8.71 19.43,-19.47l0 -155.65c0,-10.76 -8.67,-19.47 -19.43,-19.47 -10.76,0 -19.48,8.71 -19.48,19.47zm19.48 271.43l-155.68 0c-10.73,0 -19.44,8.71 -19.44,19.47 0,10.73 8.71,19.44 19.44,19.44l155.68 0c10.76,0 19.43,-8.71 19.43,-19.44 0,-10.76 -8.67,-19.47 -19.43,-19.47z"/>
   <polygon class="fil2" points="10428.79,3185.21 12632.52,3185.21 12632.52,3068.97 10428.79,3068.97 "/>
   <polygon class="fil2" points="10428.79,3426.26 12119.2,3426.26 12119.2,3310.02 10428.79,3310.02 "/>
   <polygon class="fil2" points="10428.79,3667.31 12945.97,3667.31 12945.97,3549.7 10428.79,3549.7 "/>
   <polygon class="fil2" points="10428.79,3901.49 12572.23,3901.49 12572.23,3783.87 10428.79,3783.87 "/>
   <path class="fil5" d="M10919.44 14642.75c0,0 -1023.1,293.41 -1165.9,344 -129.96,45.89 -482.14,169.26 -746.36,131.12 -26.11,-3.88 -51.37,-9.32 -75.53,-16.37 -267.72,-79.72 -387.99,-154.1 -422.98,-322.57 -35.42,-168.88 98.07,-292.24 226.48,-371.66 128.41,-79.38 825,-162.28 825,-162.28l168.1 49.43 0.38 0 1190.81 348.33z"/>
   <path class="fil3" d="M9007.18 15117.87c-26.11,-3.88 -51.37,-9.32 -75.53,-16.37 -267.72,-79.72 -387.99,-154.1 -422.98,-322.57 -35.42,-168.88 98.07,-292.24 226.48,-371.66 128.41,-79.38 825,-162.28 825,-162.28l168.1 49.43c-152.16,70.06 -719.52,108.97 -843.27,180.19 -123.76,71.19 -183.7,205.47 -110.53,386.83 38.91,96.48 143.19,189.89 232.73,256.43z"/>
   <path class="fil2" d="M10760.61 14665.57c-0.07,0.04 -192.29,49.86 -422.69,115.61 -230.54,65.83 -498.8,147.39 -652.92,211.81 -144.64,60.56 -355.57,105.2 -556.15,105.13 -106.68,0.03 -210.5,-12.59 -299.86,-41.42 -89.39,-28.82 -163.97,-73.63 -214.21,-137.45 -62.19,-79.01 -86.74,-152.67 -86.78,-218.01 0.04,-72.53 30.3,-136.17 78.18,-186.69 47.83,-50.45 113.27,-87 181.08,-103.39l0 0c173.03,-42.06 496.77,-104.86 728.12,-104.78 43.6,0 83.86,2.22 118.96,7.13 10.62,1.47 20.46,-5.97 21.94,-16.58 1.48,-10.67 -5.96,-20.51 -16.58,-21.98 -37.5,-5.22 -79.41,-7.48 -124.32,-7.48 -237.81,0.1 -562,63.39 -737.3,105.86l0 0c-74.96,18.2 -146.54,58.04 -200.13,114.42 -53.51,56.26 -88.9,129.81 -88.86,213.49l0 0c-0.04,75.35 28.71,157.87 95.14,242.11 56.48,71.65 138.36,119.95 232.84,150.39 94.54,30.48 202.03,43.28 311.78,43.28 206.37,-0.07 420.57,-45.25 571.17,-108.12 150.53,-63 418.75,-144.71 648.59,-210.29 114.93,-32.81 220.41,-61.67 297.14,-82.31 76.73,-20.63 124.53,-33.02 124.64,-33.04 10.4,-2.69 16.65,-13.31 13.97,-23.72 -2.72,-10.4 -13.34,-16.65 -23.71,-13.97l-0.04 0z"/>
   <path class="fil2" d="M9031.94 15086.82l-2.89 -1.61c-14.89,-8.55 -84.7,-50.5 -149.86,-116.35 -65.4,-66.01 -124.88,-155.02 -124.67,-257.03 0,-36.27 7.3,-74.51 24.8,-115.01 21.1,-48.96 66.64,-84.81 130.74,-112.44 95.85,-41.38 230.15,-61.94 364.69,-82.82 134.69,-21.13 269.63,-42.55 370.52,-89.72 9.74,-4.58 13.9,-16.15 9.35,-25.9 -4.58,-9.7 -16.16,-13.88 -25.89,-9.34 -123.86,58.49 -318.24,77.41 -493.81,108.19 -87.88,15.56 -171.31,34.23 -240.24,63.86 -68.69,29.53 -124.29,70.85 -151.1,132.72 -19.47,45.09 -28.01,88.9 -28.01,130.46 0,62.64 19.26,119.79 47.45,169.72 84.95,149.5 248.92,238.4 250.19,239.39 9.46,5.18 21.27,1.72 26.42,-7.69 5.19,-9.43 1.73,-21.23 -7.69,-26.43z"/>
   <path class="fil5" d="M14035.35 15165.36c-10.48,104.67 -47.45,205.06 -153.29,267.33 -70.45,41.66 -170.85,66.54 -314.43,64.98 -358.81,-4.66 -1033.21,-261.09 -1033.21,-261.09l-631.58 -349.08 328.43 -519.92 89.89 -142.41 232.31 52.13c0,0 192.26,108.98 385.65,195.73 193.43,86.81 662.73,105.06 828.15,238.94 165.35,133.53 286,279.05 268.08,453.39z"/>
   <path class="fil3" d="M14035.35 15165.36c-10.48,104.67 -47.45,205.06 -153.29,267.33 19.83,-81.36 36.16,-193.78 -17.92,-315.21 -70.06,-158.39 -300.04,-298.1 -602.01,-321.45 -301.59,-23.35 -533.16,-164.61 -654.19,-227.64 -94.51,-49.04 -293.8,-156.08 -376.67,-200.81l89.89 -142.41 232.31 52.13c0,0 192.26,108.98 385.65,195.73 193.43,86.81 662.73,105.06 828.15,238.94 165.35,133.53 286,279.05 268.08,453.39z"/>
   <path class="fil2" d="M12033.12 15002.23c451.66,258.76 968.13,445.1 1485.62,507.4 34.64,4.2 71.22,7.34 107.84,7.34 43.25,0 86.64,-4.38 127,-17.04 40.36,-12.62 77.82,-33.87 107.53,-67.24 41.38,-46.53 59.05,-108.38 59.05,-168.63 0,-8.86 -0.38,-17.68 -1.13,-26.43 -7.4,-86.14 -47.27,-162.73 -103.96,-225.56 -56.76,-62.86 -130.39,-112.45 -207.5,-145.63 -153.36,-65.72 -319.73,-80.96 -476.85,-116.3 -156.42,-35.07 -308.33,-90.64 -450.5,-164.79 -113.03,-58.8 -224.86,-132.54 -355.56,-160.37 -28.86,-6.11 -58.85,-9.24 -88.94,-9.24 -53.76,0 -107.81,10.02 -155.96,31.67 -48.09,21.66 -90.38,55.25 -118.92,101.96 -5.61,9.17 -2.72,21.17 6.45,26.78 9.14,5.61 21.13,2.71 26.74,-6.47 23.96,-39.12 59.44,-67.68 101.71,-86.77 42.23,-19.06 91.08,-28.29 139.98,-28.26 27.34,0 54.72,2.86 80.89,8.4 121.18,25.49 230.37,96.48 345.62,156.81 145.17,75.71 300.25,132.43 459.99,168.27 160.44,35.8 324.3,51.33 470,114.09 72.43,31.07 141.68,77.93 193.96,135.93 52.32,58.05 87.56,126.82 94.08,202.8 0.67,7.66 0.99,15.38 0.99,23.11 0.04,52.81 -15.73,105.3 -49.18,142.74 -24.37,27.3 -54.96,44.94 -90.13,56.02 -35.14,11.04 -74.75,15.24 -115.36,15.24 -34.39,0 -69.5,-2.96 -103.19,-7.06 -511.38,-61.53 -1023.37,-246.1 -1470.94,-502.53 -9.31,-5.35 -21.2,-2.12 -26.56,7.2 -5.33,9.34 -2.12,21.23 7.23,26.56z"/>
   <path class="fil2" d="M13813.34 15481.09c120.76,-62.09 220.63,-175.78 241.41,-312.88 2.61,-17.49 3.88,-34.99 3.88,-52.42 -0.28,-143.76 -84.88,-279.4 -198.09,-366.36 -126.64,-96.98 -282.82,-141.49 -435.04,-173.21 -152.23,-31.58 -305.82,-52.72 -446.87,-107.92 -92.81,-36.2 -186.51,-88.3 -281.97,-131.83 -95.43,-43.43 -193.01,-78.6 -294.39,-78.68 -34.65,0 -69.68,4.18 -104.92,13.52 -10.41,2.76 -16.58,13.41 -13.83,23.81 2.75,10.38 13.41,16.58 23.81,13.8 31.82,-8.43 63.4,-12.17 94.94,-12.21 92.11,-0.07 184.71,32.49 278.27,75.18 93.55,42.57 187.75,95.07 283.91,132.68 146.9,57.29 302.72,78.43 453.15,109.75 150.39,31.18 300.63,74.92 419.27,165.98 105.52,80.74 183.09,207.6 182.85,335.49 0,15.53 -1.13,31.11 -3.46,46.64 -17.96,121.35 -108.94,226.76 -220.66,284.02 -9.56,4.9 -13.34,16.64 -8.43,26.21 4.9,9.56 16.61,13.34 26.17,8.43z"/>
   <path class="fil5" d="M12555.02 12024.89c-36.97,19.05 106.26,-377.86 38.13,-467.75 -68.08,-90.31 -271.99,-81.35 -271.99,-81.35l17.54 -108.55c2.32,-12.1 121,-620.71 121,-620.71l40.07 -47.84c0,0 415.61,712.51 489.98,963.51 0,0 -453,362.69 -434.73,362.69zm-2686.69 -524.58c-78.59,55.63 -36.58,271.64 -36.58,271.64l-133.88 -117.9 335.88 -825.78 143.19 633.91c0,0 -229.97,-17.11 -308.61,38.13zm2887.14 -1980l-1068.64 -406.65 -13.23 -5.08c0,0 3.88,-28.39 7.02,-69.63 6.64,-85.24 10.09,-224.16 -29.95,-271.25 -59.55,-69.64 -228.46,-11.29 -393.06,-86.79 -164.61,-75.49 -469.34,59.55 -469.34,59.55 0,0 -219.85,-40.5 -316.72,118.29 -49.43,128.02 -32.32,318.73 -32.32,318.73 0,0 -6.98,2.72 -20.21,7.41 -127.28,47.45 -820,308.19 -966.68,412.89 -161.89,114.8 -340.88,1291.98 -398.49,1637.53 -57.61,345.93 -159.91,657.29 -107.77,776.35 51.75,118.71 796.17,691.94 1224.27,839.79 428.06,148.28 1946.87,104.7 1946.87,104.7 0,0 24.91,-6.67 68.9,-20.63 256.86,-82.51 1168.26,-422.24 1651.56,-1223.51 0,0 -468.17,-1535.57 -1082.21,-2191.7z"/>
   <path class="fil3" d="M10737.83 6944.73l-551.5 585.54c0,0 -76.06,67.24 -45.86,237.1 30.23,169.86 100.64,315.81 153.77,327.09 53.2,11.36 127.74,11.47 127.74,11.47 0,0 118.18,256.11 201.9,356.79 0,0 29.17,395.32 13.62,505.07 0,0 198.15,173.11 384.77,195.12 186.65,22.02 475.02,-263.98 475.02,-263.98l71.47 -350.06c0,0 169.19,-256.82 180.73,-325.18 11.57,-68.37 88.9,-50.84 126.89,-84.56 37.99,-33.69 125.98,-184.58 140.51,-327.1 14.54,-142.52 15.56,-306.25 -150,-258.16 -143.47,-38.56 -53.66,-341.84 -53.66,-341.84l-252.09 -222.43 -823.31 -44.87z"/>
   <path class="fil9" d="M11680.38 9042.33c0.07,-1.09 0.17,-2.25 0.24,-3.38l0 0c6.64,-85.24 10.09,-224.16 -29.95,-271.25 40.71,47.66 36.45,189.68 29.71,274.63z"/>
   <path class="fil10" d="M11170.82 9675.96l-119.83 -368.51 -65.8 368.51c-132.32,-57.58 -535.83,-407.43 -535.83,-407.43 0,0 -13.65,-32.66 -30.34,-83.64 13.23,-4.69 20.21,-7.41 20.21,-7.41l0 0c0,0 -2.85,-31.92 -2.85,-78.42 0,-67.13 5.96,-164.68 35.17,-240.31l0 0c0.81,-1.34 1.62,-2.65 2.47,-3.95 0.1,-0.18 0.21,-0.36 0.32,-0.5 0.52,-0.88 1.09,-1.69 1.65,-2.54 42.2,-64.17 105.17,-93.87 163.52,-106.82 3.31,90.88 4.16,179.32 -2.01,222.85 0,0 198.15,173.11 384.77,195.12 6.91,0.81 13.97,1.2 21.17,1.2 186.48,0 453.85,-265.18 453.85,-265.18l34.78 -170.25c52.42,3.6 94.47,10.83 118.6,39.02l0 0c40.04,47.09 36.59,186.01 29.95,271.25l0 0 -22.19 138.53 0 0 -91.72 124.71c-148.91,170.21 -395.89,373.77 -395.89,373.77z"/>
   <path class="fil3" d="M11043.44 9164.11c-7.2,0 -14.26,-0.39 -21.17,-1.2 -186.62,-22.01 -384.77,-195.12 -384.77,-195.12 6.17,-43.53 5.32,-131.97 2.01,-222.85 31.61,-7.02 61.87,-9.1 86.78,-9.1 36.94,0 61.98,4.62 61.98,4.62 0,0 186.13,-82.48 346.01,-82.48 44.69,0 87.38,6.46 123.33,22.93 97.93,44.91 197.41,42.44 274.46,47.77l-34.78 170.25c0,0 -267.37,265.18 -453.85,265.18z"/>
   <path class="fil5" d="M12186.12 12935.52l-243.59 -252.98 80.54 -956.52 196.99 -1684.41c20.7,-176.95 -69.5,-347.94 -226.56,-431.98 -225.85,-120.93 -493.04,-217.38 -493.04,-217.38l66.25 -90.06c39.76,-45.47 72.53,-88.55 91.72,-124.71l0 0c10.52,-19.86 19.87,-41.24 28.4,-63.82l0 0 1068.64 406.65c614.04,656.13 1082.21,2191.7 1082.21,2191.7 -483.3,801.27 -1394.7,1141 -1651.56,1223.51l0 0zm362.69 -920.01c0,6.49 1.2,10.05 3.92,10.05 0.67,0 1.44,-0.21 2.29,-0.67l0 0c-0.35,0 -0.53,-0.1 -0.53,-0.39 -0.21,-13.61 435.26,-362.3 435.26,-362.3l0 0c-74.37,-251 -489.98,-963.51 -489.98,-963.51l-40.07 47.84c0,0 -15.7,80.54 -35.81,183.62 -2.47,12.67 -5.01,25.72 -7.58,38.95 -34.15,175.15 -76.24,390.98 -77.61,398.14l-17.54 108.55 0 0c0,0 5.61,-0.24 15.24,-0.24 48.58,0 199.92,6.24 256.75,81.59 13.48,17.75 18.67,47.45 18.67,83.58 -0.07,125.27 -62.97,327.62 -63.01,374.79z"/>
   <path class="fil11" d="M11673.6 9108.58c0.04,-0.28 3.67,-27.23 6.78,-66.25 -3.07,39.2 -6.74,66.01 -6.78,66.25z"/>
   <path class="fil12" d="M11566.71 9302.19l91.72 -124.71c-19.19,36.16 -51.96,79.24 -91.72,124.71z"/>
   <path class="fil12" d="M11658.43 9177.48l22.19 -138.53c-0.07,1.13 -0.17,2.29 -0.24,3.38 -3.11,39.02 -6.74,65.97 -6.78,66.25l0 0 0 0 13.23 5.08c-8.53,22.58 -17.88,43.96 -28.4,63.82z"/>
   <path class="fil5" d="M9974.2 12256.45c0,0 -479.46,-382.55 -677.12,-382.55 -197.3,0 -162.27,-63.43 0,-316.76 162.24,-253.75 337.54,-1107.47 337.54,-1107.47l-53.69 -714.62c152.25,186.79 356.51,798.76 450.7,1098.41l-39.33 96.69 -15.84 38.95 -278.59 684.95 133.88 117.9 0 0c0,0 -11.22,-57.64 -11.22,-121.04 0,-59.33 9.81,-123.68 47.8,-150.6 48.55,-34.11 154.77,-40.64 228.96,-40.64 45.96,0 79.65,2.51 79.65,2.51l0 0 -133.45 -590.73c25.01,80.43 39.65,130.35 39.65,130.35l166.19 555.34 -312.13 380.19 37 319.12z"/>
   <path class="fil13" d="M10043.49 10871.45c-3.74,-12.03 -7.69,-24.66 -11.86,-37.99l2.12 -5.19 9.74 43.18z"/>
   <path class="fil2" d="M10604.55 8464.69c0,0.04 0.81,8.15 2.08,22.55 3.81,43.14 11.43,141.85 11.43,237.8 0.03,63.86 -3.5,126.79 -13.16,169.62 -2.36,10.51 4.23,20.92 14.74,23.25 10.48,2.36 20.89,-4.24 23.22,-14.71 10.79,-48.37 14.07,-112.79 14.11,-178.16 0,-130.56 -13.69,-263.94 -13.72,-264.3 -1.1,-10.69 -10.66,-18.48 -21.35,-17.39 -10.69,1.09 -18.48,10.66 -17.35,21.34z"/>
   <path class="fil2" d="M11547.27 8858.61l-0.03 -3.28c-0.04,-22.16 1.55,-153.29 32.77,-277.85 2.61,-10.44 -3.74,-20.99 -14.18,-23.6 -10.41,-2.61 -20.99,3.74 -23.57,14.14 -32.56,130.28 -33.9,263.42 -33.93,287.31l0.03 3.73c0.11,10.76 8.93,19.37 19.69,19.23 10.76,-0.14 19.33,-8.96 19.22,-19.68z"/>
   <path class="fil2" d="M11592.78 7180.1l1.8 2.26c9.07,11.67 51.12,67.17 90.56,138.82 39.58,71.5 75.88,159.59 75.64,233.25 0,4.02 -0.11,8.01 -0.32,11.96 -7.98,148.2 -19.51,321.21 -19.51,494.98 0,27.52 0.28,55.07 0.92,82.55l0.03 3.81c0.18,45.26 -18.8,106.96 -50.9,172.96 -48.05,99.13 -124.85,208.49 -204.51,295.63 -39.79,43.57 -80.33,81.6 -118,110.1 -37.57,28.54 -72.57,47.24 -99.13,53.02 -67.21,14.96 -130,25.12 -187.01,25.09 -83.65,-0.22 -153.57,-21 -213.08,-80.23 -105.09,-105.02 -211.74,-253.15 -351.12,-443.69 -44.59,-60.7 -71.93,-149.67 -87.21,-240.3 -15.41,-90.66 -19.19,-182.84 -19.15,-250.54 0,-31.57 0.81,-57.86 1.62,-76.16 0.81,-18.35 1.62,-28.47 1.59,-28.51 0.85,-10.72 -7.16,-20.07 -17.89,-20.92 -10.69,-0.85 -20.07,7.16 -20.88,17.89 -0.04,0.38 -3.35,43.18 -3.35,107.7 0,69.14 3.77,163.19 19.68,257.03 16.05,93.88 43.78,187.67 94.19,256.82 139.32,190.35 246.38,339.51 355,448.2 67.42,67.7 150.68,91.86 240.6,91.65 61.59,-0.03 126.89,-10.83 195.44,-26.03 47.48,-10.83 99.9,-45.3 154.87,-93.31 82.12,-72.15 168.27,-175.86 234.63,-281.38 33.12,-52.77 61.31,-105.97 81.35,-156.14 20,-50.2 32.1,-97.25 32.17,-138.88l-0.03 -4.72c-0.64,-27.13 -0.92,-54.37 -0.92,-81.64 0,-172.08 11.43,-344.31 19.44,-492.86 0.28,-4.69 0.39,-9.35 0.39,-14.08 -0.29,-91.51 -44.98,-189.83 -88.66,-266.66 -43.85,-76.7 -87.41,-131.41 -87.8,-131.91 -6.71,-8.43 -18.95,-9.8 -27.34,-3.1 -8.4,6.67 -9.81,18.91 -3.11,27.34z"/>
   <path class="fil2" d="M11152.8 7839.48c-9.81,55.31 -14.75,111.51 -14.75,167.67 0,8.54 0.11,17.08 0.35,25.58 1.63,54.29 8.86,116.87 52.04,161.43 11.5,11.64 23.81,20.85 32.7,29.74 9.07,9.02 13.8,16.46 14.82,24.29l0 0 0.21 3.22c0,6.2 -2.47,13.12 -7.69,20.31 -5.15,7.1 -12.84,13.97 -20.96,19.16l-0.03 0c-18.52,12.21 -44.42,20.74 -67.56,40.5 -8.11,7.06 -8.96,19.37 -1.9,27.45 7.05,8.11 19.33,8.96 27.44,1.9 15.1,-13.51 38.81,-21.91 63.01,-37.08l0 0c11.61,-7.44 22.72,-17.07 31.47,-29.03 8.64,-11.89 15.1,-26.6 15.13,-43.21l-0.56 -8.4 0 0c-2.83,-20.49 -14.54,-35.37 -25.97,-46.7 -11.6,-11.46 -23.81,-20.64 -32.35,-29.39 -31.18,-31.25 -39.72,-83.39 -40.92,-135.22 -0.21,-8.18 -0.32,-16.36 -0.32,-24.55 0,-53.9 4.73,-107.81 14.15,-160.87 1.9,-10.58 -5.15,-20.67 -15.73,-22.54 -10.59,-1.9 -20.68,5.15 -22.58,15.74z"/>
   <path class="fil2" d="M10865.04 8371.14c0.35,1.97 6.21,38.77 36.76,79.69 30.37,40.96 86.36,85.16 181.5,99.8 10.62,1.66 20.57,-5.61 22.23,-16.23 1.65,-10.62 -5.61,-20.56 -16.23,-22.22 -85.94,-13.58 -130.99,-51.05 -156.35,-84.63 -12.6,-16.87 -20.04,-32.92 -24.31,-44.56 -2.12,-5.82 -3.46,-10.51 -4.23,-13.65l-0.78 -3.46 -0.14 -0.7 -0.25 0.03 0.25 -0.03 0 0 -0.25 0.03 0.25 -0.03c-1.66,-10.62 -11.61,-17.93 -22.23,-16.27 -10.61,1.66 -17.88,11.61 -16.22,22.23z"/>
   <path class="fil2" d="M10903.1 7945.84c0,39.02 -16.86,70.62 -37.67,70.62 -20.82,0 -37.68,-31.6 -37.68,-70.62 0,-39.02 16.86,-70.66 37.68,-70.66 20.81,0 37.67,31.64 37.67,70.66z"/>
   <path class="fil2" d="M11443.2 7962.81c0,39.01 -16.89,70.66 -37.71,70.66 -20.78,0 -37.67,-31.65 -37.67,-70.66 0,-39.02 16.89,-70.63 37.67,-70.63 20.82,0 37.71,31.61 37.71,70.63z"/>
   <path class="fil2" d="M11361.75 7819.26l-6.74 -6.74 6.67 6.81 0.07 -0.07 -6.74 -6.74 6.67 6.81c0.67,-0.67 17.46,-16.86 42.9,-32.06 25.5,-15.39 59.16,-29.11 93.13,-28.97 19.72,0.07 39.76,4.16 61.24,15.49 21.45,11.39 44.63,30.37 68.48,61.77 12.98,17.11 37.39,20.46 54.5,7.48 17.11,-12.98 20.46,-37.4 7.48,-54.54 -29.35,-38.74 -61.1,-66.08 -94.02,-83.47 -32.84,-17.46 -66.53,-24.62 -97.68,-24.55 -56.06,0.18 -103.05,21.66 -136.24,41.91 -33.27,20.46 -53.27,40.43 -54.76,41.84 -15.2,15.2 -15.2,39.86 0,55.03 15.21,15.21 39.83,15.21 55.04,0z"/>
   <path class="fil2" d="M10991.79 7769.24c-1.87,-2.05 -16.79,-18.52 -44.34,-35.17 -27.41,-16.62 -68.13,-33.38 -119.28,-33.38 -51.12,-0.1 -111.19,17.15 -175.01,62.73 -17.53,12.45 -21.63,36.76 -9.17,54.25 12.45,17.54 36.76,21.63 54.25,9.18 53.27,-37.72 95.99,-48.23 129.93,-48.33 33.9,0 60.5,11 79.09,22.19 9.21,5.53 16.3,11.11 20.85,15.09l4.84 4.49 0.91 0.91 0.04 0.07 17.04 -15.59 -17.25 15.35 0.21 0.24 17.04 -15.59 -17.25 15.35c14.32,16.05 38.91,17.46 54.96,3.14 16.05,-14.29 17.43,-38.88 3.14,-54.93z"/>
   <path class="fil2" d="M10637.5 8627.25c0,0 107.56,296.48 347.76,380.55 240.25,84.1 559.19,-352.29 559.19,-352.29l-16.68 -56.76c0,0 -208.99,271.57 -441.47,225.25 -232.52,-46.29 -462.42,-361.28 -462.42,-361.28l13.62 164.53z"/>
   <path class="fil2" d="M10415.49 8076.12l-1.02 0.35c-5.54,1.87 -32.99,10.06 -62.9,9.99 -18.91,0.03 -38.45,-3.25 -54.43,-11.93 -15.99,-8.82 -29.29,-22.29 -38,-47.34 -13.83,-40.39 -38.66,-102.2 -60.11,-169.76 -21.45,-67.45 -39.2,-140.58 -39.09,-200.62 -0.04,-24.8 2.96,-47.2 9.35,-66.01 6.45,-18.87 16.01,-34 29.7,-45.75 17.71,-15.03 32.28,-19.72 45.58,-19.83 15.38,-0.03 31.22,7.02 46.99,19.72 23.6,18.91 44.98,49.71 59.69,75.6 7.41,12.95 13.23,24.66 17.18,33.06 1.94,4.2 3.46,7.58 4.45,9.88l1.41 3.35c4.05,9.95 15.38,14.78 25.33,10.76 9.98,-4.03 14.78,-15.38 10.76,-25.33 -0.32,-0.74 -16.16,-40.11 -43.75,-80.58 -13.83,-20.21 -30.58,-40.81 -50.62,-57.01 -19.97,-16.12 -43.99,-28.29 -71.44,-28.36 -23.6,-0.07 -48.12,9.53 -70.91,29.18 -19.68,16.86 -33.05,38.69 -41.2,62.79 -8.19,24.16 -11.43,50.69 -11.47,78.53 0.11,67.38 19.02,143.08 40.93,212.37 21.97,69.14 47.23,131.97 60.39,170.57 11.25,33.48 32.39,56.23 56.3,69 23.96,12.88 49.85,16.58 72.96,16.62 41.87,-0.07 75.71,-12.21 76.87,-12.56 10.12,-3.56 15.45,-14.68 11.89,-24.8 -3.6,-10.16 -14.71,-15.45 -24.84,-11.89z"/>
   <path class="fil2" d="M11757.21 8174.4c0.88,0.18 16.02,3.18 38.03,3.18 22.9,-0.04 53.48,-3.18 83.12,-17.46 29.59,-14.15 57.92,-40.75 72.28,-83.33 13.16,-38.59 38.42,-101.42 60.36,-170.57 21.91,-69.28 40.82,-144.99 40.92,-212.37 -0.03,-27.83 -3.28,-54.36 -11.46,-78.53 -8.15,-24.13 -21.52,-45.93 -41.21,-62.79 -22.79,-19.65 -47.3,-29.25 -70.91,-29.18 -27.44,0.04 -51.47,12.24 -71.4,28.33 -30.02,24.38 -52.88,58.46 -69.07,86.61 -16.05,28.15 -25.08,50.44 -25.3,50.97 -4.02,9.99 0.78,21.31 10.76,25.33 9.95,4.06 21.31,-0.77 25.33,-10.72l0.6 -1.45c3.21,-7.69 19.55,-44.69 43.96,-78.56 12.13,-16.93 26.32,-32.99 41.1,-44.17 14.85,-11.29 29.6,-17.43 44.02,-17.43 13.3,0.11 27.87,4.8 45.58,19.83 13.69,11.75 23.25,26.88 29.71,45.75 6.38,18.81 9.38,41.21 9.35,66.01 0.1,60.04 -17.64,133.17 -39.09,200.62 -21.42,67.56 -46.29,129.37 -60.08,169.76 -11.39,32.81 -30.52,50.02 -52.42,60.86 -21.87,10.65 -46.96,13.61 -66.15,13.58 -9.21,0 -17,-0.64 -22.44,-1.27l-6.13 -0.85 -1.49 -0.25 -0.31 -0.07c-10.52,-2.11 -20.78,4.73 -22.9,15.24 -2.11,10.55 4.69,20.82 15.24,22.93z"/>
   <path class="fil2" d="M10392.35 7945.84c39.65,-1.8 104.7,-40.46 125.62,-74.23 20.89,-33.79 29.74,-73.51 36.52,-112.6 12.98,-74.93 19.65,-150.96 19.93,-227.01 0.1,-29.71 -0.71,-60.01 7.94,-88.45 9.06,-29.59 27.8,-55.21 47.9,-78.74 49.99,-58.56 110.14,-108.05 157.7,-168.62 47.48,-60.58 82.37,-137.31 69.56,-213.19 0,0 324.73,296.83 792.84,205.04 251.98,-49.43 493.88,-270.58 464.43,-548.54 -10.48,-98.92 -83.19,-170.04 -177.56,-193.53 -124.6,-30.98 -236.5,35.45 -349.39,78 -205.77,77.61 -407.1,-55.64 -614.96,-78 -177.8,-19.12 -396.03,2.93 -488.6,179.7 0,0 -319.37,37.5 -459.21,299.79 -139.91,262.29 126.02,625.41 126.02,625.41 0,0 106.99,-129.58 244.54,132.71l-3.28 262.26z"/>
   <path class="fil2" d="M11628.13 7100.9c0,0 -82.58,430.32 132.93,638.7 0,0 47.13,-129.36 94.97,-160.93 0,0 119.9,-227.37 -37.75,-477.77 -157.66,-250.44 -190.15,0 -190.15,0z"/>
   <path class="fil4" d="M10356.05 7297.75c-0.46,0 -0.88,-0.03 -1.34,-0.07 -10.73,-0.71 -18.8,-9.98 -18.1,-20.71 8.68,-126.29 77.29,-243.27 173.43,-329 96.2,-85.65 220.55,-140.72 344.1,-140.83 11.78,0 23.56,0.53 35.31,1.55 211.91,18.98 415.85,89.86 617.36,89.86 0.35,0 0.71,0 1.06,0 87.31,-0.04 174.09,-13.06 261.8,-48.72 109.36,-44.49 204.82,-132.79 234.42,-243.74 2.32,-8.67 10.19,-14.39 18.76,-14.39 1.66,0 3.39,0.21 5.08,0.67 10.38,2.79 16.51,13.44 13.73,23.85 -34.15,126.22 -139.24,221.44 -257.32,269.63 -92.96,37.89 -185.21,51.61 -276.29,51.61 -0.08,0 -0.11,0 -0.18,0 -210.82,-0.28 -415.96,-72.04 -621.84,-89.99 -10.59,-0.96 -21.2,-1.42 -31.89,-1.42 -0.11,0 -0.25,0 -0.36,0 -111.65,0 -228.03,50.84 -317.85,130.99 -90.06,80.19 -152.86,189.02 -160.48,302.58 -0.7,10.26 -9.24,18.13 -19.4,18.13z"/>
   <path class="fil4" d="M10170.24 7231.46c-0.14,0 -0.28,0 -0.46,0 -10.72,-0.24 -19.26,-9.13 -19.01,-19.89 4.97,-206.1 139.84,-401.43 330.8,-479.08 2.4,-0.95 4.87,-1.44 7.3,-1.44 7.69,0 14.96,4.62 18.03,12.17 4.05,9.95 -0.78,21.31 -10.73,25.33 -175.86,70.98 -302.43,254.32 -306.49,443.9 -0.25,10.62 -8.89,19.01 -19.44,19.01z"/>
   <path class="fil2" d="M10540.48 8871.91c1.13,0.98 199.18,219.99 473.39,323.85 3.99,1.48 8.22,1.65 12.32,0.45 0.77,-0.24 91.33,-26.49 205.21,-84.45 113.87,-58.07 251.39,-147.6 345.44,-276.3 6.35,-8.67 4.44,-20.85 -4.24,-27.16 -8.67,-6.35 -20.85,-4.45 -27.2,4.23 -88.23,121.01 -220.87,208.25 -331.64,264.55 -55.35,28.15 -105.17,48.68 -141.01,62.13 -17.95,6.7 -32.38,11.64 -42.3,14.88 -4.97,1.63 -8.78,2.82 -11.35,3.64l-3.74 1.13 5.39 18.69 6.88 -18.2c-131.58,-49.67 -246.59,-128.24 -328.36,-194.38 -40.93,-33.06 -73.52,-63.01 -95.85,-84.6 -11.19,-10.79 -19.76,-19.54 -25.54,-25.5l-6.5 -6.85 -2.08 -2.26c-7.23,-7.97 -19.54,-8.57 -27.51,-1.34 -7.94,7.24 -8.54,19.51 -1.31,27.49z"/>
   <path class="fil2" d="M11105.24 7945.84l-19.47 0c0,82.2 -33.27,156.46 -87.1,210.32 -53.91,53.87 -128.13,87.1 -210.33,87.1 -82.19,0 -156.45,-33.23 -210.32,-87.1 -53.87,-53.86 -87.1,-128.12 -87.14,-210.32 0.04,-82.2 33.27,-156.42 87.14,-210.33 53.87,-53.87 128.13,-87.1 210.32,-87.1 82.2,0 156.42,33.23 210.33,87.1 53.83,53.87 87.1,128.13 87.1,210.33l38.91 0c0,-185.77 -150.56,-336.34 -336.34,-336.34 -185.77,0 -336.34,150.57 -336.37,336.34 0.03,185.77 150.6,336.33 336.37,336.33 185.78,0 336.34,-150.56 336.34,-336.33l-19.44 0z"/>
   <path class="fil2" d="M11813.23 7945.84l-19.47 0c0,82.2 -33.27,156.42 -87.1,210.32 -53.91,53.87 -128.13,87.1 -210.33,87.1 -82.19,0 -156.42,-33.23 -210.32,-87.1 -53.84,-53.86 -87.1,-128.12 -87.1,-210.32 0,-82.2 33.26,-156.46 87.1,-210.33 53.9,-53.87 128.13,-87.1 210.32,-87.1 82.2,0 156.42,33.23 210.33,87.1 53.83,53.91 87.1,128.13 87.1,210.33l38.95 0c-0.04,-185.77 -150.64,-336.34 -336.38,-336.34 -185.77,0 -336.34,150.57 -336.34,336.34 0,185.77 150.57,336.33 336.34,336.33 185.74,0 336.34,-150.56 336.38,-336.33l-19.48 0z"/>
   <path class="fil2" d="M10620.03 8721.55c-1.37,0.28 -27.27,5.65 -60.75,24.13 -33.44,18.49 -74.61,50.45 -104.77,103.54 -14.85,26.46 -22.9,61.46 -28.08,100.83 -5.08,39.3 -6.81,82.86 -6.81,125.02 0,101.64 10.2,195.02 10.23,195.4 0.49,4.48 2.43,8.58 5.64,11.75 0.25,0.25 72.96,72.18 176.75,159.42 103.89,87.28 238.54,189.83 364.49,251.64 5.46,2.68 11.89,2.64 17.35,-0.14 5.44,-2.75 9.28,-7.91 10.34,-13.94l57.68 -324.38 90.03 326.15c1.69,6.1 6.28,11.04 12.24,13.15 5.93,2.12 12.59,1.2 17.78,-2.43 0.35,-0.28 96.24,-68.09 205.74,-164.85 109.5,-97.02 232.69,-221.93 288.18,-341.14l1.63 -5.68c0.03,-0.42 15.48,-118.99 15.48,-225.53 -0.17,-53.52 -3.38,-103.26 -16.68,-137.62 -17.4,-44.59 -46.96,-69.67 -73.38,-82.12 -26.46,-12.6 -49.43,-13.59 -57.05,-13.62l-2.61 0.07c-10.76,0.56 -19.01,9.7 -18.45,20.42 0.57,10.73 9.71,18.98 20.43,18.46l-0.14 -2.69 0.07 2.69 0.07 0 -0.14 -2.69 0.07 2.69 0.7 0c3.89,-0.04 21.31,0.67 40.26,9.77 18.98,9.24 39.86,25.86 53.97,61.27 9.74,23.92 14.15,72.15 13.97,123.37 0,51.47 -3.77,106.79 -7.58,149.09 -1.91,21.13 -3.78,39.05 -5.22,51.64 -1.42,12.63 -2.37,19.79 -2.37,19.83l19.3 2.5 -17.64 -8.18c-50.2,109.04 -170.78,233.25 -278.62,328.29 -53.91,47.66 -104.64,88.3 -141.82,116.98 -18.59,14.33 -33.8,25.69 -44.34,33.45 -10.55,7.72 -16.3,11.82 -16.3,11.82l11.22 15.91 18.76 -5.19 -112.89 -409.01c-2.43,-8.78 -10.58,-14.68 -19.68,-14.25 -9.1,0.42 -16.65,7.05 -18.24,16.01l-72.74 409.01 19.15 3.43 8.58 -17.5c-120.65,-59.09 -254.04,-160.23 -356.56,-246.45 -51.29,-43.11 -94.96,-82.52 -125.76,-111.09 -15.42,-14.29 -27.62,-25.9 -35.91,-33.87 -8.33,-8.01 -12.74,-12.35 -12.74,-12.35l-13.69 13.83 19.33 -2.11c0,0 -0.59,-5.61 -1.55,-15.77 -2.78,-30.48 -8.43,-101.11 -8.43,-175.44 0,-41.03 1.73,-83.22 6.49,-120.05 4.66,-36.76 12.81,-68.3 23.32,-86.57 25.93,-45.62 61,-72.74 89.78,-88.73 14.36,-7.93 27.1,-13.01 36.09,-16.08 4.52,-1.52 8.05,-2.54 10.41,-3.18l2.57 -0.63 0.57 -0.14c10.51,-2.12 17.32,-12.39 15.2,-22.93 -2.15,-10.52 -12.41,-17.32 -22.93,-15.21z"/>
   <path class="fil2" d="M10189.47 11473.04c-0.04,-0.24 -28.33,-190.07 -75.53,-418.89 -47.34,-229.02 -113,-496.18 -189.9,-654.43 -4.69,-9.67 -16.34,-13.69 -26,-9 -9.67,4.73 -13.69,16.37 -9,26.03 73.77,151.13 139.95,417.76 186.8,645.27 23.49,113.81 42.26,218.09 55.21,293.83 6.45,37.89 11.43,68.65 14.81,89.92 3.39,21.27 5.12,32.95 5.12,32.99 1.59,10.65 11.5,17.95 22.12,16.4 10.62,-1.59 17.96,-11.5 16.37,-22.12z"/>
   <path class="fil2" d="M9565.09 9746.37c0,0.04 8.78,12.31 23.53,33.97 44.2,64.91 141.43,213.19 208.95,355.07 4.62,9.71 16.22,13.83 25.96,9.21 9.7,-4.62 13.79,-16.23 9.17,-25.96 -92.25,-193.61 -235.65,-394.41 -235.93,-394.9 -6.25,-8.75 -18.42,-10.8 -27.17,-4.55 -8.75,6.24 -10.76,18.41 -4.51,27.16z"/>
   <path class="fil2" d="M12573.89 10306.16c39.62,-150.43 81.92,-282.36 123.12,-366.57 4.73,-9.63 0.74,-21.31 -8.92,-26.04 -9.67,-4.69 -21.31,-0.7 -26.04,8.96 -43.39,88.87 -85.76,222.01 -125.8,373.74 -2.75,10.37 3.46,21.02 13.87,23.74 10.37,2.75 21.02,-3.46 23.77,-13.83z"/>
   <path class="fil2" d="M12340.32 11478.93c0.03,-0.1 5.11,-32.42 14.25,-87.77 27.48,-166.09 91.62,-538.62 164.36,-859.26 2.36,-10.48 -4.2,-20.88 -14.68,-23.28 -10.47,-2.37 -20.92,4.2 -23.28,14.67 -97.4,429.4 -179.03,949.36 -179.07,949.58 -1.69,10.61 5.57,20.6 16.19,22.26 10.62,1.65 20.57,-5.61 22.23,-16.2z"/>
   <path class="fil2" d="M12475.15 10758.03c75.11,-100.29 184.4,-175.05 305.12,-208.63 10.33,-2.86 16.4,-13.58 13.51,-23.95 -2.89,-10.34 -13.62,-16.41 -23.95,-13.52 -129.19,35.99 -245.4,115.47 -325.83,222.78 -6.46,8.58 -4.69,20.78 3.92,27.24 8.57,6.42 20.77,4.69 27.23,-3.92z"/>
   <path class="fil2" d="M11666.51 9126.65c0.14,0.03 657.62,262.68 1082.68,412.11l6.45 -18.38 -13.33 14.18 1.27 1.2c28.43,27.8 533.89,537.11 1075.44,2182.39l18.49 -6.1 -16.72 -9.95c0,0.04 -1.87,3.14 -5.79,9.38 -58.63,94.2 -565.01,864.78 -1471.54,1121.38 -10.34,2.96 -16.34,13.68 -13.41,24.06 2.93,10.34 13.69,16.33 24.03,13.41 984.25,-279.65 1498.88,-1146.71 1500.15,-1148.33 2.89,-4.84 3.53,-10.69 1.76,-16.02 -560.53,-1703 -1084.15,-2197.06 -1087.01,-2199.74l-6.88 -4.2c-211.81,-74.44 -482.18,-177.38 -699.52,-261.66 -108.66,-42.12 -204.09,-79.58 -272.31,-106.54 -68.27,-26.95 -109.19,-43.28 -109.29,-43.35 -9.99,-3.99 -21.31,0.88 -25.3,10.86 -3.98,9.99 0.85,21.31 10.83,25.3z"/>
   <path class="fil2" d="M12530.71 12070.72l471.38 -393.6 -12.45 -14.95 11.75 15.48 1.3 -0.91c14.19,-10.59 143.8,-100.62 303.25,-100.33 58.25,0.03 120.51,11.74 183.73,43.32 9.59,4.83 21.31,0.91 26.1,-8.68 4.8,-9.63 0.92,-21.31 -8.71,-26.11 -68.97,-34.53 -137.65,-47.45 -201.12,-47.45 -185.63,0.39 -326.42,108.2 -328.08,109.19l-0.71 0.56 -471.38 393.6c-8.25,6.88 -9.35,19.15 -2.47,27.41 6.88,8.25 19.16,9.35 27.41,2.47z"/>
   <path class="fil2" d="M12483.86 10709.7c0,0.04 6,8.86 16.8,25.23 37.81,57.36 133.95,206.37 231.35,383.22 97.4,176.74 196,381.74 238.76,548.85 2.68,10.41 13.3,16.69 23.7,14.04 10.41,-2.68 16.69,-13.3 14.01,-23.71 -50.87,-197.94 -173.88,-439.38 -284.2,-632.39 -110.35,-192.9 -208.07,-336.83 -208.24,-337.08 -6.04,-8.89 -18.14,-11.21 -27.03,-5.18 -8.89,6.03 -11.21,18.13 -5.15,27.02z"/>
   <path class="fil2" d="M9849.43 11779.64l-137.94 -131.55c-2.82,-2.68 -6.25,-4.41 -10.09,-5.08 -0.92,-0.18 -22.4,-3.84 -58.88,-3.84 -79.09,-0.04 -229.34,17.46 -391.97,126.5 -8.96,5.96 -11.32,18.06 -5.36,26.99 5.99,8.92 18.09,11.32 27.02,5.33 154.87,-103.83 296.76,-119.88 370.31,-119.91 16.93,0 30.2,0.84 39.12,1.69 4.48,0.42 7.87,0.85 10.06,1.13l2.4 0.35 0.6 0.11 3.35 -19.19 -13.44 14.07 137.97 131.55c7.76,7.41 20.07,7.13 27.48,-0.67 7.44,-7.76 7.13,-20.07 -0.63,-27.48z"/>
   <path class="fil2" d="M9716.67 11667.85c0,-0.04 2.65,-8.68 7.62,-24.59 17.5,-55.64 63.61,-198.97 123.72,-359.91 60.05,-160.86 134.31,-339.55 207.19,-464.78 5.4,-9.28 2.26,-21.2 -7.02,-26.6 -9.28,-5.4 -21.2,-2.26 -26.6,7.02 -85.69,147.43 -170.85,361.24 -235.06,538.83 -64.09,177.52 -107.03,318.49 -107.1,318.7 -3.1,10.27 2.68,21.13 12.95,24.27 10.3,3.14 21.17,-2.68 24.3,-12.94z"/>
   <path class="fil2" d="M10432.25 9159.31c-0.11,0.04 -236.68,88.8 -485.07,190.57 -124.18,50.91 -251.32,105.03 -353.55,153.07 -51.12,24.03 -96.03,46.54 -131.45,66.5 -35.52,20.22 -61.1,36.87 -76.16,53.31 -9.35,10.9 -15.74,25.4 -23.99,46.67 -29.71,78.56 -70.45,245.18 -116.03,456.57 -68.23,316.75 -146.36,732.26 -208.31,1088.74 -30.94,178.22 -57.85,341.66 -77.47,470.64 -19.58,129.22 -31.85,223.06 -33.62,265.11l-0.07 4.23c0.14,31.47 13.44,63.75 35.14,97.87 38.21,59.54 103.82,125.58 186.04,195.18 246.53,208.32 643.01,446.24 881.6,572.36 9.49,5 21.27,1.37 26.28,-8.12 5.01,-9.5 1.41,-21.28 -8.12,-26.28 -180.16,-95.22 -452.89,-255.87 -679.69,-417.7 -113.42,-80.89 -215.41,-162.13 -288.25,-235.05 -36.4,-36.44 -65.54,-70.8 -85.05,-101.35 -19.69,-30.59 -29.18,-57.22 -29.04,-76.91l0.04 -2.64c1.06,-26.74 7.55,-82.69 18.2,-158.57 37.4,-266.1 126.12,-782.25 215.54,-1242.66 44.73,-230.23 89.64,-446.62 128.38,-610.77 19.36,-82.05 37.18,-151.09 52.56,-202 7.69,-25.43 14.75,-46.35 20.96,-61.84 5.99,-15.35 11.99,-25.72 13.86,-27.48 8.11,-9.39 32.38,-26.43 66.32,-45.4 119.56,-67.49 361.53,-169.9 572.56,-254.78 105.62,-42.48 203.66,-80.72 275.27,-108.3 71.62,-27.59 116.67,-44.49 116.81,-44.52 10.05,-3.78 15.13,-15 11.36,-25.05 -3.78,-10.06 -15,-15.17 -25.05,-11.4z"/>
   <path class="fil3" d="M13863.26 8858.82l-1077.74 0c-127.28,0 -230.47,-103.15 -230.47,-230.44l0 -632.27c0,-127.25 103.19,-230.4 230.47,-230.4l1077.74 0c127.28,0 230.47,103.15 230.47,230.4l0 632.27c0,127.29 -103.19,230.44 -230.47,230.44z"/>
   <path class="fil2" d="M13863.26 8858.82l0 -19.44 -1077.74 0c-58.35,0 -110.94,-23.6 -149.19,-61.81 -38.2,-38.24 -61.8,-90.87 -61.8,-149.19l0 -632.27c0,-58.31 23.6,-110.91 61.8,-149.15 38.25,-38.21 90.84,-61.78 149.19,-61.78l1077.74 0c58.35,0 110.95,23.57 149.19,61.78 38.21,38.24 61.81,90.84 61.81,149.15l0 632.27c0,58.32 -23.6,110.95 -61.81,149.19 -38.24,38.21 -90.84,61.81 -149.19,61.81l0 38.91c138.04,0 249.91,-111.9 249.91,-249.91l0 -632.27c0,-138.01 -111.87,-249.84 -249.91,-249.87l-1077.74 0c-138.04,0.03 -249.9,111.86 -249.9,249.87l0 632.27c0,138.01 111.86,249.91 249.9,249.91l1077.74 0 0 -19.47z"/>
   <path class="fil2" d="M13041.15 8077.99l-295.84 185.73c-5.19,3.24 -8.54,8.78 -9.07,14.88 -0.49,6.07 1.91,12.1 6.49,16.16l274.53 243.52c8.05,7.13 20.36,6.39 27.49,-1.65 7.12,-8.05 6.38,-20.32 -1.66,-27.45l-255.1 -226.31 273.86 -171.9c9.11,-5.71 11.86,-17.74 6.14,-26.84 -5.71,-9.1 -17.74,-11.86 -26.84,-6.14z"/>
   <path class="fil2" d="M13603.26 8556.2l265.89 -226.58c4.66,-3.96 7.16,-9.92 6.77,-16.02 -0.35,-6.1 -3.63,-11.71 -8.74,-15.06l-306.92 -201.22c-9,-5.89 -21.03,-3.39 -26.92,5.61 -5.92,9 -3.38,21.06 5.58,26.95l285.22 186.97 -246.14 209.76c-8.18,6.95 -9.13,19.22 -2.18,27.41 6.98,8.18 19.26,9.17 27.44,2.18z"/>
   <path class="fil2" d="M13213.87 8686.73l218.44 -684.83c3.24,-10.24 -2.4,-21.21 -12.63,-24.45 -10.23,-3.28 -21.2,2.4 -24.45,12.63l-218.44 684.83c-3.25,10.24 2.4,21.17 12.63,24.45 10.23,3.28 21.2,-2.4 24.45,-12.63z"/>
   <path class="fil2" d="M11146.38 9848.11c0,34.4 -27.84,62.23 -62.23,62.23 -34.36,0 -62.2,-27.83 -62.2,-62.23 0,-34.32 27.84,-62.16 62.2,-62.16 34.39,0 62.23,27.84 62.23,62.16z"/>
   <path class="fil2" d="M12240.84 13172.02l-2152.58 0c-27.84,0 -50.45,-22.61 -50.45,-50.49 0,-27.86 22.61,-50.44 50.45,-50.44l2152.58 0c27.86,0 50.44,22.58 50.44,50.44 0,27.88 -22.58,50.49 -50.44,50.49z"/>
   <path class="fil3" d="M12316.19 13004.73l288.46 -1354.66c19.09,-89.68 -49.31,-174.17 -141,-174.17l-2514.99 0c-90.84,0 -159.03,83.01 -141.43,172.08l258.62 1309.55c13.09,66.35 70.52,114.65 138.12,116.21l1967.9 45.05c69.28,1.58 129.89,-46.29 144.32,-114.06z"/>
   <path class="fil2" d="M12316.19 13004.73l19.01 4.06 288.47 -1354.67c2.47,-11.53 3.63,-23.03 3.63,-34.36 0,-88.12 -71.43,-163.23 -163.65,-163.33l-2514.99 0c-92.07,0.1 -163.65,75.07 -163.69,163.33 0,10.52 1.03,21.24 3.18,32l258.62 1309.55c14.85,75.28 80.04,130.1 156.74,131.86l1967.9 45.09 3.81 0.03c77.05,0 143.86,-53.83 159.98,-129.5l-19.01 -4.06 -19.05 -4.05c-12.28,57.67 -63.22,98.71 -121.92,98.71l-2.89 -0.05 -1967.94 -45.04c-58.46,-1.34 -108.13,-43.15 -119.45,-100.54l-258.62 -1309.55c-1.62,-8.26 -2.44,-16.44 -2.44,-24.45 0,-33.51 13.62,-64.63 36.09,-87.38 22.51,-22.75 53.48,-37.01 88.69,-37.01l2514.99 0c35.24,0 66.22,14.29 88.72,37.04 22.44,22.79 36.02,53.91 36.02,87.35 0,8.61 -0.88,17.39 -2.79,26.28l-288.46 1354.64 19.05 4.05z"/>
   <path class="fil2" d="M11398.37 12256.57c0,110.87 -89.93,200.76 -200.8,200.76 -110.88,0 -200.77,-89.89 -200.77,-200.76 0,-110.92 89.89,-200.81 200.77,-200.81 110.87,0 200.8,89.89 200.8,200.81z"/>
   <path class="fil2" d="M11792.98 11623.93l298.84 0c10.73,0 19.44,-8.72 19.44,-19.44 0,-10.76 -8.71,-19.48 -19.44,-19.48l-298.84 0c-10.76,0 -19.47,8.72 -19.47,19.48 0,10.72 8.71,19.44 19.47,19.44z"/>
   <path class="fil2" d="M10366.03 11623.93l1134.25 0c10.76,0 19.48,-8.72 19.48,-19.44 0,-10.76 -8.72,-19.48 -19.48,-19.48l-1134.25 0c-10.76,0 -19.47,8.72 -19.47,19.48 0,10.72 8.71,19.44 19.47,19.44z"/>
   <path class="fil2" d="M12321.13 14441.8l-229.31 601.8c0,0 -584.66,-147.38 -1333.78,-300.88 -783.31,-160.51 -1601.44,-368.33 -2025.78,-1112.83 -51.75,-90.8 -86.19,-198.05 -61.95,-299.68 61.24,-257.19 395.78,-326.96 616.26,-352.71 138.43,-16.17 278.13,-21.53 417.37,-23.45 71.01,-1 305.19,-38.22 361.91,3.48 0,0.04 146.97,108.16 272.21,161.33 125.2,53.16 1953.22,-47.77 1953.22,-47.77 0,0 54.37,-114.76 57.51,-219.5 287.33,-146.05 952.74,-269.72 1233.87,-215.13 442.14,86.02 700.02,343.89 650.88,614.08 -49.11,270.19 -1024.75,994.77 -1912.41,1191.26z"/>
   <path class="fil3" d="M12326.1 14423.01c-0.03,0 -8.43,-2.22 -24.38,-6.81 -111.61,-32.04 -585.75,-178.29 -980.15,-444.93 -205.88,-139.03 -392.26,-289.14 -595.17,-405.15 -202.82,-115.97 -422.77,-197.54 -693.28,-197.47 -53.66,0 -109.29,3.22 -167.15,9.95 -10.69,1.24 -18.34,10.9 -17.11,21.56 1.27,10.69 10.9,18.31 21.59,17.07 56.41,-6.56 110.53,-9.66 162.67,-9.66 262.53,0.07 474.62,78.49 673.98,192.33 199.28,113.81 385.13,263.35 592.67,403.62 458.04,309.31 1015.32,456.74 1016.35,457.09 10.4,2.76 21.06,-3.42 23.81,-13.79 2.75,-10.41 -3.46,-21.06 -13.83,-23.81z"/>
   <path class="fil3" d="M11211.54 13933.71c292.2,-84.29 504.86,-272.28 734.48,-449.84 243.52,-188.55 500.59,-370.73 776.29,-510.19 9.56,-4.86 13.4,-16.54 8.57,-26.13 -4.87,-9.6 -16.58,-13.45 -26.14,-8.58 -279.19,141.22 -538.13,324.89 -782.53,514.1 -230.97,179.01 -439.64,362.23 -721.43,443.23 -10.34,2.97 -16.3,13.73 -13.34,24.07 2.96,10.33 13.76,16.3 24.1,13.34z"/>
   <path class="fil2" d="M11105.24 8015.44l84.18 0c10.76,0 19.47,-8.71 19.47,-19.47 0,-10.73 -8.71,-19.44 -19.47,-19.44l-84.18 0c-10.76,0 -19.47,8.71 -19.47,19.44 0,10.76 8.71,19.47 19.47,19.47z"/>
  </g>
 </g>
</svg>
